<svg xmlns="http://www.w3.org/2000/svg" width="920" height="460" viewBox="0 0 920 460">
<style>text{font-family:Arial,sans-serif;fill:#111}.axis{stroke:#111;stroke-width:1.1}.grid{stroke:#999;stroke-dasharray:3 3;opacity:.35}.label{font-size:11px}.title{font-size:14px;font-weight:600}.index{font-size:10px;font-weight:600}</style>
<rect x="0" y="0" width="100%" height="100%" fill="#fff"/>
<text class="title" x="78" y="24">QPS vs Recall — msmarco</text>
<line class="axis" x1="78" y1="400" x2="660" y2="400"/>
<line class="axis" x1="78" y1="400" x2="78" y2="42"/>
<line class="grid" x1="127.91" y1="400" x2="127.91" y2="42"/>
<text class="label" x="127.91" y="418" text-anchor="middle">10</text>
<line class="grid" x1="264.35" y1="400" x2="264.35" y2="42"/>
<text class="label" x="264.35" y="418" text-anchor="middle">100</text>
<line class="grid" x1="400.79" y1="400" x2="400.79" y2="42"/>
<text class="label" x="400.79" y="418" text-anchor="middle">1,000</text>
<line class="grid" x1="537.24" y1="400" x2="537.24" y2="42"/>
<text class="label" x="537.24" y="418" text-anchor="middle">10,000</text>
<line class="grid" x1="78" y1="400.00" x2="660" y2="400.00"/>
<text class="label" x="68" y="404.00" text-anchor="end">0.14</text>
<line class="grid" x1="78" y1="310.50" x2="660" y2="310.50"/>
<text class="label" x="68" y="314.50" text-anchor="end">0.37</text>
<line class="grid" x1="78" y1="221.00" x2="660" y2="221.00"/>
<text class="label" x="68" y="225.00" text-anchor="end">0.59</text>
<line class="grid" x1="78" y1="131.50" x2="660" y2="131.50"/>
<text class="label" x="68" y="135.50" text-anchor="end">0.82</text>
<line class="grid" x1="78" y1="42.00" x2="660" y2="42.00"/>
<text class="label" x="68" y="46.00" text-anchor="end">1.05</text>
<text class="label" x="369.00" y="442" text-anchor="middle">QPS (log scale)</text>
<text class="label" x="18" y="221.00" transform="rotate(-90 18 221.00)" text-anchor="middle">recall</text>
<circle cx="386.54" cy="61.61" r="4.4" fill="#d62728" stroke="#111" stroke-width="0.6"/>
<text class="index" x="392.54" y="57.61">1</text>
<circle cx="372.35" cy="61.61" r="4.4" fill="#d62728" stroke="#111" stroke-width="0.6"/>
<text class="index" x="378.35" y="57.61">2</text>
<circle cx="91.22" cy="61.61" r="4.4" fill="#d62728" stroke="#111" stroke-width="0.6"/>
<text class="index" x="97.22" y="57.61">3</text>
<circle cx="535.62" cy="62.73" r="4.4" fill="#d62728" stroke="#111" stroke-width="0.6"/>
<text class="index" x="541.62" y="58.73">4</text>
<circle cx="503.42" cy="63.85" r="4.4" fill="#d62728" stroke="#111" stroke-width="0.6"/>
<text class="index" x="509.42" y="59.85">5</text>
<circle cx="479.92" cy="64.41" r="4.4" fill="#d62728" stroke="#111" stroke-width="0.6"/>
<text class="index" x="485.92" y="60.41">6</text>
<circle cx="410.21" cy="67.21" r="4.4" fill="#d62728" stroke="#111" stroke-width="0.6"/>
<text class="index" x="416.21" y="63.21">7</text>
<circle cx="511.48" cy="67.77" r="4.4" fill="#d62728" stroke="#111" stroke-width="0.6"/>
<text class="index" x="517.48" y="63.77">8</text>
<circle cx="537.99" cy="68.33" r="4.4" fill="#d62728" stroke="#111" stroke-width="0.6"/>
<text class="index" x="543.99" y="64.33">9</text>
<circle cx="425.76" cy="70.57" r="4.4" fill="#d62728" stroke="#111" stroke-width="0.6"/>
<text class="index" x="431.76" y="66.57">10</text>
<circle cx="511.43" cy="72.25" r="4.4" fill="#d62728" stroke="#111" stroke-width="0.6"/>
<text class="index" x="517.43" y="68.25">11</text>
<circle cx="488.80" cy="72.81" r="4.4" fill="#d62728" stroke="#111" stroke-width="0.6"/>
<text class="index" x="494.80" y="68.81">12</text>
<circle cx="525.47" cy="74.49" r="4.4" fill="#d62728" stroke="#111" stroke-width="0.6"/>
<text class="index" x="531.47" y="70.49">13</text>
<circle cx="526.95" cy="76.74" r="4.4" fill="#d62728" stroke="#111" stroke-width="0.6"/>
<text class="index" x="532.95" y="72.74">14</text>
<circle cx="547.00" cy="78.42" r="4.4" fill="#d62728" stroke="#111" stroke-width="0.6"/>
<text class="index" x="553.00" y="74.42">15</text>
<circle cx="450.77" cy="80.10" r="4.4" fill="#d62728" stroke="#111" stroke-width="0.6"/>
<text class="index" x="456.77" y="76.10">16</text>
<circle cx="560.66" cy="82.34" r="4.4" fill="#d62728" stroke="#111" stroke-width="0.6"/>
<text class="index" x="566.66" y="78.34">17</text>
<circle cx="488.47" cy="82.90" r="4.4" fill="#d62728" stroke="#111" stroke-width="0.6"/>
<text class="index" x="494.47" y="78.90">18</text>
<circle cx="465.37" cy="85.70" r="4.4" fill="#d62728" stroke="#111" stroke-width="0.6"/>
<text class="index" x="471.37" y="81.70">19</text>
<circle cx="580.18" cy="90.18" r="4.4" fill="#d62728" stroke="#111" stroke-width="0.6"/>
<text class="index" x="586.18" y="86.18">20</text>
<circle cx="487.53" cy="91.30" r="4.4" fill="#d62728" stroke="#111" stroke-width="0.6"/>
<text class="index" x="493.53" y="87.30">21</text>
<circle cx="592.21" cy="98.59" r="4.4" fill="#d62728" stroke="#111" stroke-width="0.6"/>
<text class="index" x="598.21" y="94.59">22</text>
<circle cx="517.94" cy="98.59" r="4.4" fill="#d62728" stroke="#111" stroke-width="0.6"/>
<text class="index" x="523.94" y="94.59">23</text>
<circle cx="490.24" cy="99.71" r="4.4" fill="#d62728" stroke="#111" stroke-width="0.6"/>
<text class="index" x="496.24" y="95.71">24</text>
<circle cx="503.52" cy="100.27" r="4.4" fill="#d62728" stroke="#111" stroke-width="0.6"/>
<text class="index" x="509.52" y="96.27">25</text>
<circle cx="608.30" cy="113.71" r="4.4" fill="#d62728" stroke="#111" stroke-width="0.6"/>
<text class="index" x="614.30" y="109.71">26</text>
<circle cx="524.04" cy="116.51" r="4.4" fill="#d62728" stroke="#111" stroke-width="0.6"/>
<text class="index" x="530.04" y="112.51">27</text>
<circle cx="619.31" cy="121.56" r="4.4" fill="#d62728" stroke="#111" stroke-width="0.6"/>
<text class="index" x="625.31" y="117.56">28</text>
<circle cx="504.12" cy="149.57" r="4.4" fill="#d62728" stroke="#111" stroke-width="0.6"/>
<text class="index" x="510.12" y="145.57">29</text>
<circle cx="633.87" cy="150.13" r="4.4" fill="#d62728" stroke="#111" stroke-width="0.6"/>
<text class="index" x="639.87" y="146.13">30</text>
<circle cx="559.12" cy="155.73" r="4.4" fill="#d62728" stroke="#111" stroke-width="0.6"/>
<text class="index" x="565.12" y="151.73">31</text>
<circle cx="568.31" cy="177.58" r="4.4" fill="#d62728" stroke="#111" stroke-width="0.6"/>
<text class="index" x="574.31" y="173.58">32</text>
<circle cx="494.33" cy="177.58" r="4.4" fill="#d62728" stroke="#111" stroke-width="0.6"/>
<text class="index" x="500.33" y="173.58">33</text>
<circle cx="586.47" cy="179.26" r="4.4" fill="#d62728" stroke="#111" stroke-width="0.6"/>
<text class="index" x="592.47" y="175.26">34</text>
<circle cx="595.92" cy="179.82" r="4.4" fill="#d62728" stroke="#111" stroke-width="0.6"/>
<text class="index" x="601.92" y="175.82">35</text>
<circle cx="611.42" cy="180.94" r="4.4" fill="#d62728" stroke="#111" stroke-width="0.6"/>
<text class="index" x="617.42" y="176.94">36</text>
<circle cx="649.20" cy="182.62" r="4.4" fill="#d62728" stroke="#111" stroke-width="0.6"/>
<text class="index" x="655.20" y="178.62">37</text>
<circle cx="620.22" cy="183.18" r="4.4" fill="#d62728" stroke="#111" stroke-width="0.6"/>
<text class="index" x="626.22" y="179.18">38</text>
<circle cx="632.39" cy="187.10" r="4.4" fill="#d62728" stroke="#111" stroke-width="0.6"/>
<text class="index" x="638.39" y="183.10">39</text>
<circle cx="277.41" cy="191.03" r="4.4" fill="#d62728" stroke="#111" stroke-width="0.6"/>
<text class="index" x="283.41" y="187.03">40</text>
<circle cx="642.99" cy="206.71" r="4.4" fill="#d62728" stroke="#111" stroke-width="0.6"/>
<text class="index" x="648.99" y="202.71">41</text>
<circle cx="582.87" cy="219.04" r="4.4" fill="#d62728" stroke="#111" stroke-width="0.6"/>
<text class="index" x="588.87" y="215.04">42</text>
<circle cx="407.26" cy="227.44" r="4.4" fill="#d62728" stroke="#111" stroke-width="0.6"/>
<text class="index" x="413.26" y="223.44">43</text>
<circle cx="291.70" cy="286.27" r="4.4" fill="#d62728" stroke="#111" stroke-width="0.6"/>
<text class="index" x="297.70" y="282.27">44</text>
<circle cx="298.96" cy="304.20" r="4.4" fill="#d62728" stroke="#111" stroke-width="0.6"/>
<text class="index" x="304.96" y="300.20">45</text>
<circle cx="302.17" cy="313.16" r="4.4" fill="#d62728" stroke="#111" stroke-width="0.6"/>
<text class="index" x="308.17" y="309.16">46</text>
<circle cx="306.92" cy="324.93" r="4.4" fill="#d62728" stroke="#111" stroke-width="0.6"/>
<text class="index" x="312.92" y="320.93">47</text>
<circle cx="310.49" cy="333.33" r="4.4" fill="#d62728" stroke="#111" stroke-width="0.6"/>
<text class="index" x="316.49" y="329.33">48</text>
<circle cx="315.95" cy="345.10" r="4.4" fill="#d62728" stroke="#111" stroke-width="0.6"/>
<text class="index" x="321.95" y="341.10">49</text>
<circle cx="319.04" cy="349.58" r="4.4" fill="#d62728" stroke="#111" stroke-width="0.6"/>
<text class="index" x="325.04" y="345.58">50</text>
<circle cx="321.75" cy="354.62" r="4.4" fill="#d62728" stroke="#111" stroke-width="0.6"/>
<text class="index" x="327.75" y="350.62">51</text>
<circle cx="325.52" cy="363.02" r="4.4" fill="#d62728" stroke="#111" stroke-width="0.6"/>
<text class="index" x="331.52" y="359.02">52</text>
<circle cx="293.21" cy="380.39" r="4.4" fill="#d62728" stroke="#111" stroke-width="0.6"/>
<text class="index" x="299.21" y="376.39">53</text>
<text class="label" x="676" y="50">Labels</text>
<text class="label" x="676" y="64">1. ivf_flat__p10</text>
<text class="label" x="676" y="78">2. exact</text>
<text class="label" x="676" y="92">3. covertree_v2_2</text>
<text class="label" x="676" y="106">4. hnsw__p10</text>
<text class="label" x="676" y="120">5. hnsw__p09</text>
<text class="label" x="676" y="134">6. hnsw__p08</text>
<text class="label" x="676" y="148">7. ivf_flat__p09</text>
<text class="label" x="676" y="162">8. hnsw__p07</text>
<text class="label" x="676" y="176">9. hnsw__p06</text>
<text class="label" x="676" y="190">10. ivf_flat__p08</text>
<text class="label" x="676" y="204">11. ivf_sq8__p10</text>
<text class="label" x="676" y="218">12. hnsw__p05</text>
<text class="label" x="676" y="232">13. ivf_sq8__p09</text>
<text class="label" x="676" y="246">14. hnsw__p04</text>
<text class="label" x="676" y="260">15. ivf_sq8__p08</text>
<text class="label" x="676" y="274">16. ivf_flat__p07</text>
<text class="label" x="676" y="288">17. ivf_sq8__p07</text>
<text class="label" x="676" y="302">18. hnsw__p03</text>
<text class="label" x="676" y="316">19. ivf_flat__p06</text>
<text class="label" x="676" y="330">20. ivf_sq8__p06</text>
<text class="label" x="676" y="344">21. ivf_flat__p05</text>
<text class="label" x="676" y="358">22. ivf_sq8__p05</text>
<text class="label" x="676" y="372">23. hnsw__p02</text>
<text class="label" x="676" y="386">24. hnsw__p01</text>
<text class="label" x="676" y="400">25. ivf_flat__p04</text>
<text class="label" x="676" y="414">26. ivf_sq8__p04</text>
<text class="label" x="676" y="428">27. ivf_flat__p03</text>
<text class="label" x="676" y="442">28. ivf_sq8__p03</text>
<text class="label" x="676" y="456">29. pq</text>
<text class="label" x="676" y="470">30. ivf_sq8__p02</text>
<text class="label" x="676" y="484">31. ivf_flat__p02</text>
<text class="label" x="676" y="498">32. ivf_pq__p09</text>
<text class="label" x="676" y="512">33. ivf_pq__p10</text>
<text class="label" x="676" y="526">34. ivf_pq__p08</text>
<text class="label" x="676" y="540">35. ivf_pq__p07</text>
<text class="label" x="676" y="554">36. ivf_pq__p06</text>
<text class="label" x="676" y="568">37. ivf_sq8__p01</text>
<text class="label" x="676" y="582">38. ivf_pq__p05</text>
<text class="label" x="676" y="596">39. ivf_pq__p04</text>
<text class="label" x="676" y="610">40. ivf_pq__p03</text>
<text class="label" x="676" y="624">41. ivf_pq__p02</text>
<text class="label" x="676" y="638">42. ivf_flat__p01</text>
<text class="label" x="676" y="652">43. ivf_pq__p01</text>
<text class="label" x="676" y="666">44. lsh__p10</text>
<text class="label" x="676" y="680">45. lsh__p09</text>
<text class="label" x="676" y="694">46. lsh__p08</text>
<text class="label" x="676" y="708">47. lsh__p07</text>
<text class="label" x="676" y="722">48. lsh__p06</text>
<text class="label" x="676" y="736">49. lsh__p05</text>
<text class="label" x="676" y="750">50. lsh__p04</text>
<text class="label" x="676" y="764">51. lsh__p03</text>
<text class="label" x="676" y="778">52. lsh__p02</text>
<text class="label" x="676" y="792">53. lsh__p01</text>
</svg>