<svg xmlns="http://www.w3.org/2000/svg" width="920" height="460" viewBox="0 0 920 460">
<style>text{font-family:Arial,sans-serif;fill:#111}.axis{stroke:#111;stroke-width:1.1}.grid{stroke:#999;stroke-dasharray:3 3;opacity:.35}.label{font-size:11px}.title{font-size:14px;font-weight:600}.index{font-size:10px;font-weight:600}</style>
<rect x="0" y="0" width="100%" height="100%" fill="#fff"/>
<text class="title" x="78" y="24">QPS vs Recall — random</text>
<line class="axis" x1="78" y1="400" x2="660" y2="400"/>
<line class="axis" x1="78" y1="400" x2="78" y2="42"/>
<line class="grid" x1="155.92" y1="400" x2="155.92" y2="42"/>
<text class="label" x="155.92" y="418" text-anchor="middle">100</text>
<line class="grid" x1="292.89" y1="400" x2="292.89" y2="42"/>
<text class="label" x="292.89" y="418" text-anchor="middle">1,000</text>
<line class="grid" x1="429.85" y1="400" x2="429.85" y2="42"/>
<text class="label" x="429.85" y="418" text-anchor="middle">10,000</text>
<line class="grid" x1="566.82" y1="400" x2="566.82" y2="42"/>
<text class="label" x="566.82" y="418" text-anchor="middle">100,000</text>
<line class="grid" x1="78" y1="400.00" x2="660" y2="400.00"/>
<text class="label" x="68" y="404.00" text-anchor="end">0.08</text>
<line class="grid" x1="78" y1="310.50" x2="660" y2="310.50"/>
<text class="label" x="68" y="314.50" text-anchor="end">0.32</text>
<line class="grid" x1="78" y1="221.00" x2="660" y2="221.00"/>
<text class="label" x="68" y="225.00" text-anchor="end">0.56</text>
<line class="grid" x1="78" y1="131.50" x2="660" y2="131.50"/>
<text class="label" x="68" y="135.50" text-anchor="end">0.81</text>
<line class="grid" x1="78" y1="42.00" x2="660" y2="42.00"/>
<text class="label" x="68" y="46.00" text-anchor="end">1.05</text>
<text class="label" x="369.00" y="442" text-anchor="middle">QPS (log scale)</text>
<text class="label" x="18" y="221.00" transform="rotate(-90 18 221.00)" text-anchor="middle">recall</text>
<circle cx="540.90" cy="60.41" r="4.4" fill="#d62728" stroke="#111" stroke-width="0.6"/>
<text class="index" x="546.90" y="56.41">1</text>
<circle cx="188.50" cy="60.41" r="4.4" fill="#d62728" stroke="#111" stroke-width="0.6"/>
<text class="index" x="194.50" y="56.41">2</text>
<circle cx="91.27" cy="60.41" r="4.4" fill="#d62728" stroke="#111" stroke-width="0.6"/>
<text class="index" x="97.27" y="56.41">3</text>
<circle cx="561.90" cy="69.76" r="4.4" fill="#d62728" stroke="#111" stroke-width="0.6"/>
<text class="index" x="567.90" y="65.76">4</text>
<circle cx="386.05" cy="72.49" r="4.4" fill="#d62728" stroke="#111" stroke-width="0.6"/>
<text class="index" x="392.05" y="68.49">5</text>
<circle cx="574.49" cy="75.66" r="4.4" fill="#d62728" stroke="#111" stroke-width="0.6"/>
<text class="index" x="580.49" y="71.66">6</text>
<circle cx="561.37" cy="76.38" r="4.4" fill="#d62728" stroke="#111" stroke-width="0.6"/>
<text class="index" x="567.37" y="72.38">7</text>
<circle cx="581.38" cy="80.40" r="4.4" fill="#d62728" stroke="#111" stroke-width="0.6"/>
<text class="index" x="587.38" y="76.40">8</text>
<circle cx="574.12" cy="88.31" r="4.4" fill="#d62728" stroke="#111" stroke-width="0.6"/>
<text class="index" x="580.12" y="84.31">9</text>
<circle cx="426.08" cy="91.91" r="4.4" fill="#d62728" stroke="#111" stroke-width="0.6"/>
<text class="index" x="432.08" y="87.91">10</text>
<circle cx="436.71" cy="92.20" r="4.4" fill="#d62728" stroke="#111" stroke-width="0.6"/>
<text class="index" x="442.71" y="88.20">11</text>
<circle cx="571.73" cy="101.69" r="4.4" fill="#d62728" stroke="#111" stroke-width="0.6"/>
<text class="index" x="577.73" y="97.69">12</text>
<circle cx="603.99" cy="105.86" r="4.4" fill="#d62728" stroke="#111" stroke-width="0.6"/>
<text class="index" x="609.99" y="101.86">13</text>
<circle cx="584.88" cy="109.03" r="4.4" fill="#d62728" stroke="#111" stroke-width="0.6"/>
<text class="index" x="590.88" y="105.03">14</text>
<circle cx="491.75" cy="111.47" r="4.4" fill="#d62728" stroke="#111" stroke-width="0.6"/>
<text class="index" x="497.75" y="107.47">15</text>
<circle cx="613.63" cy="120.39" r="4.4" fill="#d62728" stroke="#111" stroke-width="0.6"/>
<text class="index" x="619.63" y="116.39">16</text>
<circle cx="625.96" cy="142.40" r="4.4" fill="#d62728" stroke="#111" stroke-width="0.6"/>
<text class="index" x="631.96" y="138.40">17</text>
<circle cx="600.05" cy="145.42" r="4.4" fill="#d62728" stroke="#111" stroke-width="0.6"/>
<text class="index" x="606.05" y="141.42">18</text>
<circle cx="513.38" cy="145.70" r="4.4" fill="#d62728" stroke="#111" stroke-width="0.6"/>
<text class="index" x="519.38" y="141.70">19</text>
<circle cx="591.42" cy="150.74" r="4.4" fill="#d62728" stroke="#111" stroke-width="0.6"/>
<text class="index" x="597.42" y="146.74">20</text>
<circle cx="640.60" cy="176.34" r="4.4" fill="#d62728" stroke="#111" stroke-width="0.6"/>
<text class="index" x="646.60" y="172.34">21</text>
<circle cx="613.11" cy="176.48" r="4.4" fill="#d62728" stroke="#111" stroke-width="0.6"/>
<text class="index" x="619.11" y="172.48">22</text>
<circle cx="527.85" cy="176.63" r="4.4" fill="#d62728" stroke="#111" stroke-width="0.6"/>
<text class="index" x="533.85" y="172.63">23</text>
<circle cx="601.33" cy="184.83" r="4.4" fill="#d62728" stroke="#111" stroke-width="0.6"/>
<text class="index" x="607.33" y="180.83">24</text>
<circle cx="183.00" cy="195.61" r="4.4" fill="#d62728" stroke="#111" stroke-width="0.6"/>
<text class="index" x="189.00" y="191.61">25</text>
<circle cx="649.15" cy="202.23" r="4.4" fill="#d62728" stroke="#111" stroke-width="0.6"/>
<text class="index" x="655.15" y="198.23">26</text>
<circle cx="625.87" cy="217.19" r="4.4" fill="#d62728" stroke="#111" stroke-width="0.6"/>
<text class="index" x="631.87" y="213.19">27</text>
<circle cx="538.43" cy="217.48" r="4.4" fill="#d62728" stroke="#111" stroke-width="0.6"/>
<text class="index" x="544.43" y="213.48">28</text>
<circle cx="185.10" cy="225.67" r="4.4" fill="#d62728" stroke="#111" stroke-width="0.6"/>
<text class="index" x="191.10" y="221.67">29</text>
<circle cx="612.72" cy="228.98" r="4.4" fill="#d62728" stroke="#111" stroke-width="0.6"/>
<text class="index" x="618.72" y="224.98">30</text>
<circle cx="332.74" cy="239.63" r="4.4" fill="#d62728" stroke="#111" stroke-width="0.6"/>
<text class="index" x="338.74" y="235.63">31</text>
<circle cx="186.93" cy="240.78" r="4.4" fill="#d62728" stroke="#111" stroke-width="0.6"/>
<text class="index" x="192.93" y="236.78">32</text>
<circle cx="628.89" cy="241.21" r="4.4" fill="#d62728" stroke="#111" stroke-width="0.6"/>
<text class="index" x="634.89" y="237.21">33</text>
<circle cx="555.40" cy="241.21" r="4.4" fill="#d62728" stroke="#111" stroke-width="0.6"/>
<text class="index" x="561.40" y="237.21">34</text>
<circle cx="188.60" cy="259.62" r="4.4" fill="#d62728" stroke="#111" stroke-width="0.6"/>
<text class="index" x="194.60" y="255.62">35</text>
<circle cx="616.48" cy="260.77" r="4.4" fill="#d62728" stroke="#111" stroke-width="0.6"/>
<text class="index" x="622.48" y="256.77">36</text>
<circle cx="635.22" cy="278.75" r="4.4" fill="#d62728" stroke="#111" stroke-width="0.6"/>
<text class="index" x="641.22" y="274.75">37</text>
<circle cx="567.43" cy="278.75" r="4.4" fill="#d62728" stroke="#111" stroke-width="0.6"/>
<text class="index" x="573.43" y="274.75">38</text>
<circle cx="189.94" cy="282.78" r="4.4" fill="#d62728" stroke="#111" stroke-width="0.6"/>
<text class="index" x="195.94" y="278.78">39</text>
<circle cx="625.88" cy="298.02" r="4.4" fill="#d62728" stroke="#111" stroke-width="0.6"/>
<text class="index" x="631.88" y="294.02">40</text>
<circle cx="637.38" cy="299.17" r="4.4" fill="#d62728" stroke="#111" stroke-width="0.6"/>
<text class="index" x="643.38" y="295.17">41</text>
<circle cx="579.12" cy="299.17" r="4.4" fill="#d62728" stroke="#111" stroke-width="0.6"/>
<text class="index" x="585.12" y="295.17">42</text>
<circle cx="191.28" cy="311.11" r="4.4" fill="#d62728" stroke="#111" stroke-width="0.6"/>
<text class="index" x="197.28" y="307.11">43</text>
<circle cx="192.06" cy="330.96" r="4.4" fill="#d62728" stroke="#111" stroke-width="0.6"/>
<text class="index" x="198.06" y="326.96">44</text>
<circle cx="637.12" cy="331.39" r="4.4" fill="#d62728" stroke="#111" stroke-width="0.6"/>
<text class="index" x="643.12" y="327.39">45</text>
<circle cx="588.53" cy="331.39" r="4.4" fill="#d62728" stroke="#111" stroke-width="0.6"/>
<text class="index" x="594.53" y="327.39">46</text>
<circle cx="629.09" cy="347.50" r="4.4" fill="#d62728" stroke="#111" stroke-width="0.6"/>
<text class="index" x="635.09" y="343.50">47</text>
<circle cx="192.66" cy="351.82" r="4.4" fill="#d62728" stroke="#111" stroke-width="0.6"/>
<text class="index" x="198.66" y="347.82">48</text>
<circle cx="193.11" cy="363.47" r="4.4" fill="#d62728" stroke="#111" stroke-width="0.6"/>
<text class="index" x="199.11" y="359.47">49</text>
<circle cx="630.42" cy="365.34" r="4.4" fill="#d62728" stroke="#111" stroke-width="0.6"/>
<text class="index" x="636.42" y="361.34">50</text>
<circle cx="342.90" cy="365.34" r="4.4" fill="#d62728" stroke="#111" stroke-width="0.6"/>
<text class="index" x="348.90" y="361.34">51</text>
<circle cx="191.52" cy="377.56" r="4.4" fill="#d62728" stroke="#111" stroke-width="0.6"/>
<text class="index" x="197.52" y="373.56">52</text>
<circle cx="571.90" cy="381.59" r="4.4" fill="#d62728" stroke="#111" stroke-width="0.6"/>
<text class="index" x="577.90" y="377.59">53</text>
<text class="label" x="676" y="50">Labels</text>
<text class="label" x="676" y="64">1. ivf_flat__p10</text>
<text class="label" x="676" y="78">2. exact</text>
<text class="label" x="676" y="92">3. covertree_v2_2</text>
<text class="label" x="676" y="106">4. hnsw__p10</text>
<text class="label" x="676" y="120">5. pq</text>
<text class="label" x="676" y="134">6. hnsw__p09</text>
<text class="label" x="676" y="148">7. ivf_flat__p09</text>
<text class="label" x="676" y="162">8. hnsw__p08</text>
<text class="label" x="676" y="176">9. ivf_sq8__p10</text>
<text class="label" x="676" y="190">10. hnsw__p07</text>
<text class="label" x="676" y="204">11. ivf_pq__p10</text>
<text class="label" x="676" y="218">12. ivf_flat__p08</text>
<text class="label" x="676" y="232">13. hnsw__p06</text>
<text class="label" x="676" y="246">14. ivf_sq8__p09</text>
<text class="label" x="676" y="260">15. ivf_pq__p09</text>
<text class="label" x="676" y="274">16. hnsw__p05</text>
<text class="label" x="676" y="288">17. hnsw__p04</text>
<text class="label" x="676" y="302">18. ivf_sq8__p08</text>
<text class="label" x="676" y="316">19. ivf_pq__p08</text>
<text class="label" x="676" y="330">20. ivf_flat__p07</text>
<text class="label" x="676" y="344">21. hnsw__p03</text>
<text class="label" x="676" y="358">22. ivf_sq8__p07</text>
<text class="label" x="676" y="372">23. ivf_pq__p07</text>
<text class="label" x="676" y="386">24. ivf_flat__p06</text>
<text class="label" x="676" y="400">25. lsh__p10</text>
<text class="label" x="676" y="414">26. hnsw__p02</text>
<text class="label" x="676" y="428">27. ivf_sq8__p06</text>
<text class="label" x="676" y="442">28. ivf_pq__p06</text>
<text class="label" x="676" y="456">29. lsh__p09</text>
<text class="label" x="676" y="470">30. ivf_flat__p05</text>
<text class="label" x="676" y="484">31. hnsw__p01</text>
<text class="label" x="676" y="498">32. lsh__p08</text>
<text class="label" x="676" y="512">33. ivf_sq8__p05</text>
<text class="label" x="676" y="526">34. ivf_pq__p05</text>
<text class="label" x="676" y="540">35. lsh__p07</text>
<text class="label" x="676" y="554">36. ivf_flat__p04</text>
<text class="label" x="676" y="568">37. ivf_sq8__p04</text>
<text class="label" x="676" y="582">38. ivf_pq__p04</text>
<text class="label" x="676" y="596">39. lsh__p06</text>
<text class="label" x="676" y="610">40. ivf_flat__p03</text>
<text class="label" x="676" y="624">41. ivf_sq8__p03</text>
<text class="label" x="676" y="638">42. ivf_pq__p03</text>
<text class="label" x="676" y="652">43. lsh__p05</text>
<text class="label" x="676" y="666">44. lsh__p04</text>
<text class="label" x="676" y="680">45. ivf_sq8__p02</text>
<text class="label" x="676" y="694">46. ivf_pq__p02</text>
<text class="label" x="676" y="708">47. ivf_flat__p02</text>
<text class="label" x="676" y="722">48. lsh__p03</text>
<text class="label" x="676" y="736">49. lsh__p02</text>
<text class="label" x="676" y="750">50. ivf_sq8__p01</text>
<text class="label" x="676" y="764">51. ivf_pq__p01</text>
<text class="label" x="676" y="778">52. lsh__p01</text>
<text class="label" x="676" y="792">53. ivf_flat__p01</text>
</svg>