<svg xmlns="http://www.w3.org/2000/svg" width="920" height="460" viewBox="0 0 920 460">
<style>text{font-family:Arial,sans-serif;fill:#111}.axis{stroke:#111;stroke-width:1.1}.grid{stroke:#999;stroke-dasharray:3 3;opacity:.35}.label{font-size:11px}.title{font-size:14px;font-weight:600}.index{font-size:10px;font-weight:600}</style>
<rect x="0" y="0" width="100%" height="100%" fill="#fff"/>
<text class="title" x="78" y="24">QPS vs Recall — glove50</text>
<line class="axis" x1="78" y1="400" x2="660" y2="400"/>
<line class="axis" x1="78" y1="400" x2="78" y2="42"/>
<line class="grid" x1="159.09" y1="400" x2="159.09" y2="42"/>
<text class="label" x="159.09" y="418" text-anchor="middle">100</text>
<line class="grid" x1="292.74" y1="400" x2="292.74" y2="42"/>
<text class="label" x="292.74" y="418" text-anchor="middle">1,000</text>
<line class="grid" x1="426.39" y1="400" x2="426.39" y2="42"/>
<text class="label" x="426.39" y="418" text-anchor="middle">10,000</text>
<line class="grid" x1="560.03" y1="400" x2="560.03" y2="42"/>
<text class="label" x="560.03" y="418" text-anchor="middle">100,000</text>
<line class="grid" x1="78" y1="400.00" x2="660" y2="400.00"/>
<text class="label" x="68" y="404.00" text-anchor="end">0.20</text>
<line class="grid" x1="78" y1="310.50" x2="660" y2="310.50"/>
<text class="label" x="68" y="314.50" text-anchor="end">0.41</text>
<line class="grid" x1="78" y1="221.00" x2="660" y2="221.00"/>
<text class="label" x="68" y="225.00" text-anchor="end">0.63</text>
<line class="grid" x1="78" y1="131.50" x2="660" y2="131.50"/>
<text class="label" x="68" y="135.50" text-anchor="end">0.84</text>
<line class="grid" x1="78" y1="42.00" x2="660" y2="42.00"/>
<text class="label" x="68" y="46.00" text-anchor="end">1.05</text>
<text class="label" x="369.00" y="442" text-anchor="middle">QPS (log scale)</text>
<text class="label" x="18" y="221.00" transform="rotate(-90 18 221.00)" text-anchor="middle">recall</text>
<circle cx="558.52" cy="63.12" r="4.4" fill="#d62728" stroke="#111" stroke-width="0.6"/>
<text class="index" x="564.52" y="59.12">1</text>
<circle cx="542.02" cy="63.12" r="4.4" fill="#d62728" stroke="#111" stroke-width="0.6"/>
<text class="index" x="548.02" y="59.12">2</text>
<circle cx="217.27" cy="63.12" r="4.4" fill="#d62728" stroke="#111" stroke-width="0.6"/>
<text class="index" x="223.27" y="59.12">3</text>
<circle cx="90.95" cy="63.12" r="4.4" fill="#d62728" stroke="#111" stroke-width="0.6"/>
<text class="index" x="96.95" y="59.12">4</text>
<circle cx="568.09" cy="65.10" r="4.4" fill="#d62728" stroke="#111" stroke-width="0.6"/>
<text class="index" x="574.09" y="61.10">5</text>
<circle cx="574.24" cy="66.58" r="4.4" fill="#d62728" stroke="#111" stroke-width="0.6"/>
<text class="index" x="580.24" y="62.58">6</text>
<circle cx="584.90" cy="67.74" r="4.4" fill="#d62728" stroke="#111" stroke-width="0.6"/>
<text class="index" x="590.90" y="63.74">7</text>
<circle cx="586.21" cy="69.88" r="4.4" fill="#d62728" stroke="#111" stroke-width="0.6"/>
<text class="index" x="592.21" y="65.88">8</text>
<circle cx="594.89" cy="70.54" r="4.4" fill="#d62728" stroke="#111" stroke-width="0.6"/>
<text class="index" x="600.89" y="66.54">9</text>
<circle cx="462.37" cy="70.54" r="4.4" fill="#d62728" stroke="#111" stroke-width="0.6"/>
<text class="index" x="468.37" y="66.54">10</text>
<circle cx="466.67" cy="70.71" r="4.4" fill="#d62728" stroke="#111" stroke-width="0.6"/>
<text class="index" x="472.67" y="66.71">11</text>
<circle cx="474.49" cy="70.87" r="4.4" fill="#d62728" stroke="#111" stroke-width="0.6"/>
<text class="index" x="480.49" y="66.87">12</text>
<circle cx="486.18" cy="71.70" r="4.4" fill="#d62728" stroke="#111" stroke-width="0.6"/>
<text class="index" x="492.18" y="67.70">13</text>
<circle cx="499.11" cy="72.03" r="4.4" fill="#d62728" stroke="#111" stroke-width="0.6"/>
<text class="index" x="505.11" y="68.03">14</text>
<circle cx="604.68" cy="73.35" r="4.4" fill="#d62728" stroke="#111" stroke-width="0.6"/>
<text class="index" x="610.68" y="69.35">15</text>
<circle cx="494.14" cy="73.51" r="4.4" fill="#d62728" stroke="#111" stroke-width="0.6"/>
<text class="index" x="500.14" y="69.51">16</text>
<circle cx="519.57" cy="74.83" r="4.4" fill="#d62728" stroke="#111" stroke-width="0.6"/>
<text class="index" x="525.57" y="70.83">17</text>
<circle cx="593.81" cy="76.81" r="4.4" fill="#d62728" stroke="#111" stroke-width="0.6"/>
<text class="index" x="599.81" y="72.81">18</text>
<circle cx="613.45" cy="77.96" r="4.4" fill="#d62728" stroke="#111" stroke-width="0.6"/>
<text class="index" x="619.45" y="73.96">19</text>
<circle cx="508.04" cy="79.12" r="4.4" fill="#d62728" stroke="#111" stroke-width="0.6"/>
<text class="index" x="514.04" y="75.12">20</text>
<circle cx="530.52" cy="80.60" r="4.4" fill="#d62728" stroke="#111" stroke-width="0.6"/>
<text class="index" x="536.52" y="76.60">21</text>
<circle cx="621.92" cy="83.74" r="4.4" fill="#d62728" stroke="#111" stroke-width="0.6"/>
<text class="index" x="627.92" y="79.74">22</text>
<circle cx="529.01" cy="88.52" r="4.4" fill="#d62728" stroke="#111" stroke-width="0.6"/>
<text class="index" x="535.01" y="84.52">23</text>
<circle cx="547.37" cy="89.84" r="4.4" fill="#d62728" stroke="#111" stroke-width="0.6"/>
<text class="index" x="553.37" y="85.84">24</text>
<circle cx="607.84" cy="90.50" r="4.4" fill="#d62728" stroke="#111" stroke-width="0.6"/>
<text class="index" x="613.84" y="86.50">25</text>
<circle cx="630.90" cy="91.82" r="4.4" fill="#d62728" stroke="#111" stroke-width="0.6"/>
<text class="index" x="636.90" y="87.82">26</text>
<circle cx="543.98" cy="100.57" r="4.4" fill="#d62728" stroke="#111" stroke-width="0.6"/>
<text class="index" x="549.98" y="96.57">27</text>
<circle cx="556.85" cy="101.39" r="4.4" fill="#d62728" stroke="#111" stroke-width="0.6"/>
<text class="index" x="562.85" y="97.39">28</text>
<circle cx="611.04" cy="106.67" r="4.4" fill="#d62728" stroke="#111" stroke-width="0.6"/>
<text class="index" x="617.04" y="102.67">29</text>
<circle cx="641.86" cy="108.98" r="4.4" fill="#d62728" stroke="#111" stroke-width="0.6"/>
<text class="index" x="647.86" y="104.98">30</text>
<circle cx="563.54" cy="118.38" r="4.4" fill="#d62728" stroke="#111" stroke-width="0.6"/>
<text class="index" x="569.54" y="114.38">31</text>
<circle cx="569.03" cy="119.37" r="4.4" fill="#d62728" stroke="#111" stroke-width="0.6"/>
<text class="index" x="575.03" y="115.37">32</text>
<circle cx="634.14" cy="122.67" r="4.4" fill="#d62728" stroke="#111" stroke-width="0.6"/>
<text class="index" x="640.14" y="118.67">33</text>
<circle cx="621.73" cy="133.40" r="4.4" fill="#d62728" stroke="#111" stroke-width="0.6"/>
<text class="index" x="627.73" y="129.40">34</text>
<circle cx="577.20" cy="140.33" r="4.4" fill="#d62728" stroke="#111" stroke-width="0.6"/>
<text class="index" x="583.20" y="136.33">35</text>
<circle cx="578.72" cy="140.99" r="4.4" fill="#d62728" stroke="#111" stroke-width="0.6"/>
<text class="index" x="584.72" y="136.99">36</text>
<circle cx="157.02" cy="142.47" r="4.4" fill="#d62728" stroke="#111" stroke-width="0.6"/>
<text class="index" x="163.02" y="138.47">37</text>
<circle cx="649.42" cy="153.36" r="4.4" fill="#d62728" stroke="#111" stroke-width="0.6"/>
<text class="index" x="655.42" y="149.36">38</text>
<circle cx="158.65" cy="167.05" r="4.4" fill="#d62728" stroke="#111" stroke-width="0.6"/>
<text class="index" x="164.65" y="163.05">39</text>
<circle cx="595.60" cy="169.53" r="4.4" fill="#d62728" stroke="#111" stroke-width="0.6"/>
<text class="index" x="601.60" y="165.53">40</text>
<circle cx="590.13" cy="169.53" r="4.4" fill="#d62728" stroke="#111" stroke-width="0.6"/>
<text class="index" x="596.13" y="165.53">41</text>
<circle cx="159.46" cy="187.18" r="4.4" fill="#d62728" stroke="#111" stroke-width="0.6"/>
<text class="index" x="165.46" y="183.18">42</text>
<circle cx="625.28" cy="193.12" r="4.4" fill="#d62728" stroke="#111" stroke-width="0.6"/>
<text class="index" x="631.28" y="189.12">43</text>
<circle cx="160.31" cy="210.11" r="4.4" fill="#d62728" stroke="#111" stroke-width="0.6"/>
<text class="index" x="166.31" y="206.11">44</text>
<circle cx="160.94" cy="235.02" r="4.4" fill="#d62728" stroke="#111" stroke-width="0.6"/>
<text class="index" x="166.94" y="231.02">45</text>
<circle cx="604.19" cy="236.67" r="4.4" fill="#d62728" stroke="#111" stroke-width="0.6"/>
<text class="index" x="610.19" y="232.67">46</text>
<circle cx="501.06" cy="236.67" r="4.4" fill="#d62728" stroke="#111" stroke-width="0.6"/>
<text class="index" x="507.06" y="232.67">47</text>
<circle cx="628.43" cy="267.03" r="4.4" fill="#d62728" stroke="#111" stroke-width="0.6"/>
<text class="index" x="634.43" y="263.03">48</text>
<circle cx="160.95" cy="271.15" r="4.4" fill="#d62728" stroke="#111" stroke-width="0.6"/>
<text class="index" x="166.95" y="267.15">49</text>
<circle cx="162.00" cy="299.69" r="4.4" fill="#d62728" stroke="#111" stroke-width="0.6"/>
<text class="index" x="168.00" y="295.69">50</text>
<circle cx="161.70" cy="333.18" r="4.4" fill="#d62728" stroke="#111" stroke-width="0.6"/>
<text class="index" x="167.70" y="329.18">51</text>
<circle cx="162.73" cy="353.64" r="4.4" fill="#d62728" stroke="#111" stroke-width="0.6"/>
<text class="index" x="168.73" y="349.64">52</text>
<circle cx="163.00" cy="378.88" r="4.4" fill="#d62728" stroke="#111" stroke-width="0.6"/>
<text class="index" x="169.00" y="374.88">53</text>
<text class="label" x="676" y="50">Labels</text>
<text class="label" x="676" y="64">1. ivf_flat__p09</text>
<text class="label" x="676" y="78">2. ivf_flat__p10</text>
<text class="label" x="676" y="92">3. exact</text>
<text class="label" x="676" y="106">4. covertree_v2_2</text>
<text class="label" x="676" y="120">5. ivf_flat__p08</text>
<text class="label" x="676" y="134">6. hnsw__p10</text>
<text class="label" x="676" y="148">7. hnsw__p09</text>
<text class="label" x="676" y="162">8. ivf_flat__p07</text>
<text class="label" x="676" y="176">9. hnsw__p08</text>
<text class="label" x="676" y="190">10. ivf_sq8__p10</text>
<text class="label" x="676" y="204">11. pq</text>
<text class="label" x="676" y="218">12. ivf_sq8__p09</text>
<text class="label" x="676" y="232">13. ivf_pq__p10</text>
<text class="label" x="676" y="246">14. ivf_pq__p09</text>
<text class="label" x="676" y="260">15. hnsw__p07</text>
<text class="label" x="676" y="274">16. ivf_sq8__p08</text>
<text class="label" x="676" y="288">17. ivf_pq__p08</text>
<text class="label" x="676" y="302">18. ivf_flat__p06</text>
<text class="label" x="676" y="316">19. hnsw__p06</text>
<text class="label" x="676" y="330">20. ivf_sq8__p07</text>
<text class="label" x="676" y="344">21. ivf_pq__p07</text>
<text class="label" x="676" y="358">22. hnsw__p05</text>
<text class="label" x="676" y="372">23. ivf_sq8__p06</text>
<text class="label" x="676" y="386">24. ivf_pq__p06</text>
<text class="label" x="676" y="400">25. ivf_flat__p05</text>
<text class="label" x="676" y="414">26. hnsw__p04</text>
<text class="label" x="676" y="428">27. ivf_sq8__p05</text>
<text class="label" x="676" y="442">28. ivf_pq__p05</text>
<text class="label" x="676" y="456">29. ivf_flat__p04</text>
<text class="label" x="676" y="470">30. hnsw__p03</text>
<text class="label" x="676" y="484">31. ivf_sq8__p04</text>
<text class="label" x="676" y="498">32. ivf_pq__p04</text>
<text class="label" x="676" y="512">33. hnsw__p02</text>
<text class="label" x="676" y="526">34. ivf_flat__p03</text>
<text class="label" x="676" y="540">35. ivf_sq8__p03</text>
<text class="label" x="676" y="554">36. ivf_pq__p03</text>
<text class="label" x="676" y="568">37. lsh__p10</text>
<text class="label" x="676" y="582">38. hnsw__p01</text>
<text class="label" x="676" y="596">39. lsh__p09</text>
<text class="label" x="676" y="610">40. ivf_sq8__p02</text>
<text class="label" x="676" y="624">41. ivf_pq__p02</text>
<text class="label" x="676" y="638">42. lsh__p08</text>
<text class="label" x="676" y="652">43. ivf_flat__p02</text>
<text class="label" x="676" y="666">44. lsh__p07</text>
<text class="label" x="676" y="680">45. lsh__p06</text>
<text class="label" x="676" y="694">46. ivf_pq__p01</text>
<text class="label" x="676" y="708">47. ivf_sq8__p01</text>
<text class="label" x="676" y="722">48. ivf_flat__p01</text>
<text class="label" x="676" y="736">49. lsh__p05</text>
<text class="label" x="676" y="750">50. lsh__p04</text>
<text class="label" x="676" y="764">51. lsh__p03</text>
<text class="label" x="676" y="778">52. lsh__p02</text>
<text class="label" x="676" y="792">53. lsh__p01</text>
</svg>