<svg xmlns="http://www.w3.org/2000/svg" width="920" height="460" viewBox="0 0 920 460">
<style>text{font-family:Arial,sans-serif;fill:#111}.axis{stroke:#111;stroke-width:1.1}.grid{stroke:#999;stroke-dasharray:3 3;opacity:.35}.label{font-size:11px}.title{font-size:14px;font-weight:600}.index{font-size:10px;font-weight:600}</style>
<rect x="0" y="0" width="100%" height="100%" fill="#fff"/>
<text class="title" x="78" y="24">QPS vs Recall — msmarco</text>
<line class="axis" x1="78" y1="400" x2="660" y2="400"/>
<line class="axis" x1="78" y1="400" x2="78" y2="42"/>
<line class="grid" x1="131.97" y1="400" x2="131.97" y2="42"/>
<text class="label" x="131.97" y="418" text-anchor="middle">10</text>
<line class="grid" x1="292.37" y1="400" x2="292.37" y2="42"/>
<text class="label" x="292.37" y="418" text-anchor="middle">100</text>
<line class="grid" x1="452.77" y1="400" x2="452.77" y2="42"/>
<text class="label" x="452.77" y="418" text-anchor="middle">1,000</text>
<line class="grid" x1="613.17" y1="400" x2="613.17" y2="42"/>
<text class="label" x="613.17" y="418" text-anchor="middle">10,000</text>
<line class="grid" x1="78" y1="400.00" x2="660" y2="400.00"/>
<text class="label" x="68" y="404.00" text-anchor="end">0.28</text>
<line class="grid" x1="78" y1="310.50" x2="660" y2="310.50"/>
<text class="label" x="68" y="314.50" text-anchor="end">0.47</text>
<line class="grid" x1="78" y1="221.00" x2="660" y2="221.00"/>
<text class="label" x="68" y="225.00" text-anchor="end">0.66</text>
<line class="grid" x1="78" y1="131.50" x2="660" y2="131.50"/>
<text class="label" x="68" y="135.50" text-anchor="end">0.86</text>
<line class="grid" x1="78" y1="42.00" x2="660" y2="42.00"/>
<text class="label" x="68" y="46.00" text-anchor="end">1.05</text>
<text class="label" x="369.00" y="442" text-anchor="middle">QPS (log scale)</text>
<text class="label" x="18" y="221.00" transform="rotate(-90 18 221.00)" text-anchor="middle">recall</text>
<circle cx="411.18" cy="65.20" r="4.4" fill="#d62728" stroke="#111" stroke-width="0.6"/>
<text class="index" x="417.18" y="61.20">1</text>
<circle cx="93.54" cy="65.20" r="4.4" fill="#d62728" stroke="#111" stroke-width="0.6"/>
<text class="index" x="99.54" y="61.20">2</text>
<circle cx="596.50" cy="71.83" r="4.4" fill="#d62728" stroke="#111" stroke-width="0.6"/>
<text class="index" x="602.50" y="67.83">3</text>
<circle cx="513.40" cy="87.08" r="4.4" fill="#d62728" stroke="#111" stroke-width="0.6"/>
<text class="index" x="519.40" y="83.08">4</text>
<circle cx="647.30" cy="89.73" r="4.4" fill="#d62728" stroke="#111" stroke-width="0.6"/>
<text class="index" x="653.30" y="85.73">5</text>
<circle cx="574.54" cy="169.29" r="4.4" fill="#d62728" stroke="#111" stroke-width="0.6"/>
<text class="index" x="580.54" y="165.29">6</text>
<circle cx="463.46" cy="205.09" r="4.4" fill="#d62728" stroke="#111" stroke-width="0.6"/>
<text class="index" x="469.46" y="201.09">7</text>
<circle cx="319.35" cy="376.80" r="4.4" fill="#d62728" stroke="#111" stroke-width="0.6"/>
<text class="index" x="325.35" y="372.80">8</text>
<text class="label" x="676" y="50">Labels</text>
<text class="label" x="676" y="64">1. exact</text>
<text class="label" x="676" y="78">2. covertree_v2_2</text>
<text class="label" x="676" y="92">3. hnsw</text>
<text class="label" x="676" y="106">4. ivf_flat</text>
<text class="label" x="676" y="120">5. ivf_sq8</text>
<text class="label" x="676" y="134">6. pq</text>
<text class="label" x="676" y="148">7. ivf_pq</text>
<text class="label" x="676" y="162">8. lsh</text>
</svg>