<svg xmlns="http://www.w3.org/2000/svg" width="920" height="460" viewBox="0 0 920 460">
<style>text{font-family:Arial,sans-serif;fill:#111}.axis{stroke:#111;stroke-width:1.1}.grid{stroke:#999;stroke-dasharray:3 3;opacity:.35}.label{font-size:11px}.title{font-size:14px;font-weight:600}.index{font-size:10px;font-weight:600}</style>
<rect x="0" y="0" width="100%" height="100%" fill="#fff"/>
<text class="title" x="78" y="24">QPS vs Recall — glove50</text>
<line class="axis" x1="78" y1="400" x2="660" y2="400"/>
<line class="axis" x1="78" y1="400" x2="78" y2="42"/>
<line class="grid" x1="158.58" y1="400" x2="158.58" y2="42"/>
<text class="label" x="158.58" y="418" text-anchor="middle">100</text>
<line class="grid" x1="302.12" y1="400" x2="302.12" y2="42"/>
<text class="label" x="302.12" y="418" text-anchor="middle">1,000</text>
<line class="grid" x1="445.65" y1="400" x2="445.65" y2="42"/>
<text class="label" x="445.65" y="418" text-anchor="middle">10,000</text>
<line class="grid" x1="589.18" y1="400" x2="589.18" y2="42"/>
<text class="label" x="589.18" y="418" text-anchor="middle">100,000</text>
<line class="grid" x1="78" y1="400.00" x2="660" y2="400.00"/>
<text class="label" x="68" y="404.00" text-anchor="end">0.46</text>
<line class="grid" x1="78" y1="310.50" x2="660" y2="310.50"/>
<text class="label" x="68" y="314.50" text-anchor="end">0.61</text>
<line class="grid" x1="78" y1="221.00" x2="660" y2="221.00"/>
<text class="label" x="68" y="225.00" text-anchor="end">0.75</text>
<line class="grid" x1="78" y1="131.50" x2="660" y2="131.50"/>
<text class="label" x="68" y="135.50" text-anchor="end">0.90</text>
<line class="grid" x1="78" y1="42.00" x2="660" y2="42.00"/>
<text class="label" x="68" y="46.00" text-anchor="end">1.05</text>
<text class="label" x="369.00" y="442" text-anchor="middle">QPS (log scale)</text>
<text class="label" x="18" y="221.00" transform="rotate(-90 18 221.00)" text-anchor="middle">recall</text>
<circle cx="225.10" cy="72.21" r="4.4" fill="#d62728" stroke="#111" stroke-width="0.6"/>
<text class="index" x="231.10" y="68.21">1</text>
<circle cx="91.91" cy="72.21" r="4.4" fill="#d62728" stroke="#111" stroke-width="0.6"/>
<text class="index" x="97.91" y="68.21">2</text>
<circle cx="488.35" cy="83.06" r="4.4" fill="#d62728" stroke="#111" stroke-width="0.6"/>
<text class="index" x="494.35" y="79.06">3</text>
<circle cx="636.45" cy="87.31" r="4.4" fill="#d62728" stroke="#111" stroke-width="0.6"/>
<text class="index" x="642.45" y="83.31">4</text>
<circle cx="567.42" cy="125.78" r="4.4" fill="#d62728" stroke="#111" stroke-width="0.6"/>
<text class="index" x="573.42" y="121.78">5</text>
<circle cx="586.53" cy="126.96" r="4.4" fill="#d62728" stroke="#111" stroke-width="0.6"/>
<text class="index" x="592.53" y="122.96">6</text>
<circle cx="648.63" cy="150.79" r="4.4" fill="#d62728" stroke="#111" stroke-width="0.6"/>
<text class="index" x="654.63" y="146.79">7</text>
<circle cx="146.10" cy="369.79" r="4.4" fill="#d62728" stroke="#111" stroke-width="0.6"/>
<text class="index" x="152.10" y="365.79">8</text>
<text class="label" x="676" y="50">Labels</text>
<text class="label" x="676" y="64">1. exact</text>
<text class="label" x="676" y="78">2. covertree_v2_2</text>
<text class="label" x="676" y="92">3. pq</text>
<text class="label" x="676" y="106">4. hnsw</text>
<text class="label" x="676" y="120">5. ivf_sq8</text>
<text class="label" x="676" y="134">6. ivf_pq</text>
<text class="label" x="676" y="148">7. ivf_flat</text>
<text class="label" x="676" y="162">8. lsh</text>
</svg>