<svg xmlns="http://www.w3.org/2000/svg" width="920" height="460" viewBox="0 0 920 460">
<style>text{font-family:Arial,sans-serif;fill:#111}.axis{stroke:#111;stroke-width:1.1}.grid{stroke:#999;stroke-dasharray:3 3;opacity:.35}.label{font-size:11px}.title{font-size:14px;font-weight:600}.index{font-size:10px;font-weight:600}</style>
<rect x="0" y="0" width="100%" height="100%" fill="#fff"/>
<text class="title" x="78" y="24">QPS vs Recall — random</text>
<line class="axis" x1="78" y1="400" x2="660" y2="400"/>
<line class="axis" x1="78" y1="400" x2="78" y2="42"/>
<line class="grid" x1="158.81" y1="400" x2="158.81" y2="42"/>
<text class="label" x="158.81" y="418" text-anchor="middle">100</text>
<line class="grid" x1="303.03" y1="400" x2="303.03" y2="42"/>
<text class="label" x="303.03" y="418" text-anchor="middle">1,000</text>
<line class="grid" x1="447.25" y1="400" x2="447.25" y2="42"/>
<text class="label" x="447.25" y="418" text-anchor="middle">10,000</text>
<line class="grid" x1="591.47" y1="400" x2="591.47" y2="42"/>
<text class="label" x="591.47" y="418" text-anchor="middle">100,000</text>
<line class="grid" x1="78" y1="400.00" x2="660" y2="400.00"/>
<text class="label" x="68" y="404.00" text-anchor="end">0.27</text>
<line class="grid" x1="78" y1="310.50" x2="660" y2="310.50"/>
<text class="label" x="68" y="314.50" text-anchor="end">0.46</text>
<line class="grid" x1="78" y1="221.00" x2="660" y2="221.00"/>
<text class="label" x="68" y="225.00" text-anchor="end">0.66</text>
<line class="grid" x1="78" y1="131.50" x2="660" y2="131.50"/>
<text class="label" x="68" y="135.50" text-anchor="end">0.85</text>
<line class="grid" x1="78" y1="42.00" x2="660" y2="42.00"/>
<text class="label" x="68" y="46.00" text-anchor="end">1.05</text>
<text class="label" x="369.00" y="442" text-anchor="middle">QPS (log scale)</text>
<text class="label" x="18" y="221.00" transform="rotate(-90 18 221.00)" text-anchor="middle">recall</text>
<circle cx="208.21" cy="64.92" r="4.4" fill="#d62728" stroke="#111" stroke-width="0.6"/>
<text class="index" x="214.21" y="60.92">1</text>
<circle cx="91.98" cy="64.92" r="4.4" fill="#d62728" stroke="#111" stroke-width="0.6"/>
<text class="index" x="97.98" y="60.92">2</text>
<circle cx="506.14" cy="79.97" r="4.4" fill="#d62728" stroke="#111" stroke-width="0.6"/>
<text class="index" x="512.14" y="75.97">3</text>
<circle cx="501.79" cy="103.61" r="4.4" fill="#d62728" stroke="#111" stroke-width="0.6"/>
<text class="index" x="507.79" y="99.61">4</text>
<circle cx="648.58" cy="290.04" r="4.4" fill="#d62728" stroke="#111" stroke-width="0.6"/>
<text class="index" x="654.58" y="286.04">5</text>
<circle cx="538.96" cy="290.04" r="4.4" fill="#d62728" stroke="#111" stroke-width="0.6"/>
<text class="index" x="544.96" y="286.04">6</text>
<circle cx="598.40" cy="335.17" r="4.4" fill="#d62728" stroke="#111" stroke-width="0.6"/>
<text class="index" x="604.40" y="331.17">7</text>
<circle cx="193.14" cy="377.08" r="4.4" fill="#d62728" stroke="#111" stroke-width="0.6"/>
<text class="index" x="199.14" y="373.08">8</text>
<text class="label" x="676" y="50">Labels</text>
<text class="label" x="676" y="64">1. exact</text>
<text class="label" x="676" y="78">2. covertree_v2_2</text>
<text class="label" x="676" y="92">3. pq</text>
<text class="label" x="676" y="106">4. hnsw</text>
<text class="label" x="676" y="120">5. ivf_sq8</text>
<text class="label" x="676" y="134">6. ivf_pq</text>
<text class="label" x="676" y="148">7. ivf_flat</text>
<text class="label" x="676" y="162">8. lsh</text>
</svg>