<svg xmlns="http://www.w3.org/2000/svg" width="920" height="460" viewBox="0 0 920 460">
<style>text{font-family:Arial,sans-serif;fill:#111}.axis{stroke:#111;stroke-width:1.1}.grid{stroke:#999;stroke-dasharray:3 3;opacity:.35}.label{font-size:11px}.title{font-size:14px;font-weight:600}.index{font-size:10px;font-weight:600}</style>
<rect x="0" y="0" width="100%" height="100%" fill="#fff"/>
<text class="title" x="78" y="24">QPS vs Recall — msmarco</text>
<line class="axis" x1="78" y1="400" x2="660" y2="400"/>
<line class="axis" x1="78" y1="400" x2="78" y2="42"/>
<line class="grid" x1="129.31" y1="400" x2="129.31" y2="42"/>
<text class="label" x="129.31" y="418" text-anchor="middle">10</text>
<line class="grid" x1="275.36" y1="400" x2="275.36" y2="42"/>
<text class="label" x="275.36" y="418" text-anchor="middle">100</text>
<line class="grid" x1="421.40" y1="400" x2="421.40" y2="42"/>
<text class="label" x="421.40" y="418" text-anchor="middle">1,000</text>
<line class="grid" x1="567.45" y1="400" x2="567.45" y2="42"/>
<text class="label" x="567.45" y="418" text-anchor="middle">10,000</text>
<line class="grid" x1="78" y1="400.00" x2="660" y2="400.00"/>
<text class="label" x="68" y="404.00" text-anchor="end">0.14</text>
<line class="grid" x1="78" y1="310.50" x2="660" y2="310.50"/>
<text class="label" x="68" y="314.50" text-anchor="end">0.37</text>
<line class="grid" x1="78" y1="221.00" x2="660" y2="221.00"/>
<text class="label" x="68" y="225.00" text-anchor="end">0.59</text>
<line class="grid" x1="78" y1="131.50" x2="660" y2="131.50"/>
<text class="label" x="68" y="135.50" text-anchor="end">0.82</text>
<line class="grid" x1="78" y1="42.00" x2="660" y2="42.00"/>
<text class="label" x="68" y="46.00" text-anchor="end">1.05</text>
<text class="label" x="369.00" y="442" text-anchor="middle">QPS (log scale)</text>
<text class="label" x="18" y="221.00" transform="rotate(-90 18 221.00)" text-anchor="middle">recall</text>
<circle cx="382.49" cy="61.61" r="4.4" fill="#d62728" stroke="#111" stroke-width="0.6"/>
<text class="index" x="388.49" y="57.61">1</text>
<circle cx="333.26" cy="61.61" r="4.4" fill="#d62728" stroke="#111" stroke-width="0.6"/>
<text class="index" x="339.26" y="57.61">2</text>
<circle cx="92.15" cy="61.61" r="4.4" fill="#d62728" stroke="#111" stroke-width="0.6"/>
<text class="index" x="98.15" y="57.61">3</text>
<circle cx="446.69" cy="62.73" r="4.4" fill="#d62728" stroke="#111" stroke-width="0.6"/>
<text class="index" x="452.69" y="58.73">4</text>
<circle cx="455.12" cy="63.85" r="4.4" fill="#d62728" stroke="#111" stroke-width="0.6"/>
<text class="index" x="461.12" y="59.85">5</text>
<circle cx="453.77" cy="66.09" r="4.4" fill="#d62728" stroke="#111" stroke-width="0.6"/>
<text class="index" x="459.77" y="62.09">6</text>
<circle cx="357.19" cy="67.21" r="4.4" fill="#d62728" stroke="#111" stroke-width="0.6"/>
<text class="index" x="363.19" y="63.21">7</text>
<circle cx="458.29" cy="68.33" r="4.4" fill="#d62728" stroke="#111" stroke-width="0.6"/>
<text class="index" x="464.29" y="64.33">8</text>
<circle cx="503.29" cy="68.89" r="4.4" fill="#d62728" stroke="#111" stroke-width="0.6"/>
<text class="index" x="509.29" y="64.89">9</text>
<circle cx="461.12" cy="68.89" r="4.4" fill="#d62728" stroke="#111" stroke-width="0.6"/>
<text class="index" x="467.12" y="64.89">10</text>
<circle cx="378.69" cy="70.57" r="4.4" fill="#d62728" stroke="#111" stroke-width="0.6"/>
<text class="index" x="384.69" y="66.57">11</text>
<circle cx="511.52" cy="71.69" r="4.4" fill="#d62728" stroke="#111" stroke-width="0.6"/>
<text class="index" x="517.52" y="67.69">12</text>
<circle cx="526.05" cy="73.93" r="4.4" fill="#d62728" stroke="#111" stroke-width="0.6"/>
<text class="index" x="532.05" y="69.93">13</text>
<circle cx="536.62" cy="77.30" r="4.4" fill="#d62728" stroke="#111" stroke-width="0.6"/>
<text class="index" x="542.62" y="73.30">14</text>
<circle cx="546.84" cy="77.86" r="4.4" fill="#d62728" stroke="#111" stroke-width="0.6"/>
<text class="index" x="552.84" y="73.86">15</text>
<circle cx="404.26" cy="80.10" r="4.4" fill="#d62728" stroke="#111" stroke-width="0.6"/>
<text class="index" x="410.26" y="76.10">16</text>
<circle cx="564.52" cy="81.78" r="4.4" fill="#d62728" stroke="#111" stroke-width="0.6"/>
<text class="index" x="570.52" y="77.78">17</text>
<circle cx="480.79" cy="81.78" r="4.4" fill="#d62728" stroke="#111" stroke-width="0.6"/>
<text class="index" x="486.79" y="77.78">18</text>
<circle cx="427.54" cy="85.70" r="4.4" fill="#d62728" stroke="#111" stroke-width="0.6"/>
<text class="index" x="433.54" y="81.70">19</text>
<circle cx="585.56" cy="89.62" r="4.4" fill="#d62728" stroke="#111" stroke-width="0.6"/>
<text class="index" x="591.56" y="85.62">20</text>
<circle cx="526.19" cy="89.62" r="4.4" fill="#d62728" stroke="#111" stroke-width="0.6"/>
<text class="index" x="532.19" y="85.62">21</text>
<circle cx="459.52" cy="91.30" r="4.4" fill="#d62728" stroke="#111" stroke-width="0.6"/>
<text class="index" x="465.52" y="87.30">22</text>
<circle cx="599.86" cy="98.03" r="4.4" fill="#d62728" stroke="#111" stroke-width="0.6"/>
<text class="index" x="605.86" y="94.03">23</text>
<circle cx="476.10" cy="100.27" r="4.4" fill="#d62728" stroke="#111" stroke-width="0.6"/>
<text class="index" x="482.10" y="96.27">24</text>
<circle cx="448.72" cy="106.99" r="4.4" fill="#d62728" stroke="#111" stroke-width="0.6"/>
<text class="index" x="454.72" y="102.99">25</text>
<circle cx="617.96" cy="112.59" r="4.4" fill="#d62728" stroke="#111" stroke-width="0.6"/>
<text class="index" x="623.96" y="108.59">26</text>
<circle cx="509.69" cy="116.51" r="4.4" fill="#d62728" stroke="#111" stroke-width="0.6"/>
<text class="index" x="515.69" y="112.51">27</text>
<circle cx="630.99" cy="120.44" r="4.4" fill="#d62728" stroke="#111" stroke-width="0.6"/>
<text class="index" x="636.99" y="116.44">28</text>
<circle cx="419.84" cy="149.57" r="4.4" fill="#d62728" stroke="#111" stroke-width="0.6"/>
<text class="index" x="425.84" y="145.57">29</text>
<circle cx="648.44" cy="150.13" r="4.4" fill="#d62728" stroke="#111" stroke-width="0.6"/>
<text class="index" x="654.44" y="146.13">30</text>
<circle cx="556.41" cy="155.73" r="4.4" fill="#d62728" stroke="#111" stroke-width="0.6"/>
<text class="index" x="562.41" y="151.73">31</text>
<circle cx="547.65" cy="173.66" r="4.4" fill="#d62728" stroke="#111" stroke-width="0.6"/>
<text class="index" x="553.65" y="169.66">32</text>
<circle cx="537.83" cy="173.66" r="4.4" fill="#d62728" stroke="#111" stroke-width="0.6"/>
<text class="index" x="543.83" y="169.66">33</text>
<circle cx="564.01" cy="175.34" r="4.4" fill="#d62728" stroke="#111" stroke-width="0.6"/>
<text class="index" x="570.01" y="171.34">34</text>
<circle cx="564.17" cy="175.90" r="4.4" fill="#d62728" stroke="#111" stroke-width="0.6"/>
<text class="index" x="570.17" y="171.90">35</text>
<circle cx="578.25" cy="177.58" r="4.4" fill="#d62728" stroke="#111" stroke-width="0.6"/>
<text class="index" x="584.25" y="173.58">36</text>
<circle cx="587.63" cy="178.14" r="4.4" fill="#d62728" stroke="#111" stroke-width="0.6"/>
<text class="index" x="593.63" y="174.14">37</text>
<circle cx="564.71" cy="182.62" r="4.4" fill="#d62728" stroke="#111" stroke-width="0.6"/>
<text class="index" x="570.71" y="178.62">38</text>
<circle cx="588.97" cy="183.74" r="4.4" fill="#d62728" stroke="#111" stroke-width="0.6"/>
<text class="index" x="594.97" y="179.74">39</text>
<circle cx="587.63" cy="188.23" r="4.4" fill="#d62728" stroke="#111" stroke-width="0.6"/>
<text class="index" x="593.63" y="184.23">40</text>
<circle cx="597.72" cy="202.79" r="4.4" fill="#d62728" stroke="#111" stroke-width="0.6"/>
<text class="index" x="603.72" y="198.79">41</text>
<circle cx="451.03" cy="219.04" r="4.4" fill="#d62728" stroke="#111" stroke-width="0.6"/>
<text class="index" x="457.03" y="215.04">42</text>
<circle cx="437.58" cy="223.52" r="4.4" fill="#d62728" stroke="#111" stroke-width="0.6"/>
<text class="index" x="443.58" y="219.52">43</text>
<circle cx="298.24" cy="286.27" r="4.4" fill="#d62728" stroke="#111" stroke-width="0.6"/>
<text class="index" x="304.24" y="282.27">44</text>
<circle cx="288.78" cy="304.20" r="4.4" fill="#d62728" stroke="#111" stroke-width="0.6"/>
<text class="index" x="294.78" y="300.20">45</text>
<circle cx="298.35" cy="313.16" r="4.4" fill="#d62728" stroke="#111" stroke-width="0.6"/>
<text class="index" x="304.35" y="309.16">46</text>
<circle cx="302.69" cy="324.93" r="4.4" fill="#d62728" stroke="#111" stroke-width="0.6"/>
<text class="index" x="308.69" y="320.93">47</text>
<circle cx="309.37" cy="333.33" r="4.4" fill="#d62728" stroke="#111" stroke-width="0.6"/>
<text class="index" x="315.37" y="329.33">48</text>
<circle cx="321.16" cy="345.10" r="4.4" fill="#d62728" stroke="#111" stroke-width="0.6"/>
<text class="index" x="327.16" y="341.10">49</text>
<circle cx="341.47" cy="349.58" r="4.4" fill="#d62728" stroke="#111" stroke-width="0.6"/>
<text class="index" x="347.47" y="345.58">50</text>
<circle cx="341.67" cy="354.62" r="4.4" fill="#d62728" stroke="#111" stroke-width="0.6"/>
<text class="index" x="347.67" y="350.62">51</text>
<circle cx="346.49" cy="363.02" r="4.4" fill="#d62728" stroke="#111" stroke-width="0.6"/>
<text class="index" x="352.49" y="359.02">52</text>
<circle cx="303.68" cy="380.39" r="4.4" fill="#d62728" stroke="#111" stroke-width="0.6"/>
<text class="index" x="309.68" y="376.39">53</text>
<text class="label" x="676" y="50">Labels</text>
<text class="label" x="676" y="64">1. exact</text>
<text class="label" x="676" y="78">2. ivf_flat__p10</text>
<text class="label" x="676" y="92">3. covertree_v2_2</text>
<text class="label" x="676" y="106">4. hnsw__p10</text>
<text class="label" x="676" y="120">5. hnsw__p09</text>
<text class="label" x="676" y="134">6. hnsw__p08</text>
<text class="label" x="676" y="148">7. ivf_flat__p09</text>
<text class="label" x="676" y="162">8. hnsw__p07</text>
<text class="label" x="676" y="176">9. hnsw__p05</text>
<text class="label" x="676" y="190">10. hnsw__p06</text>
<text class="label" x="676" y="204">11. ivf_flat__p08</text>
<text class="label" x="676" y="218">12. ivf_sq8__p10</text>
<text class="label" x="676" y="232">13. ivf_sq8__p09</text>
<text class="label" x="676" y="246">14. hnsw__p04</text>
<text class="label" x="676" y="260">15. ivf_sq8__p08</text>
<text class="label" x="676" y="274">16. ivf_flat__p07</text>
<text class="label" x="676" y="288">17. ivf_sq8__p07</text>
<text class="label" x="676" y="302">18. hnsw__p03</text>
<text class="label" x="676" y="316">19. ivf_flat__p06</text>
<text class="label" x="676" y="330">20. ivf_sq8__p06</text>
<text class="label" x="676" y="344">21. hnsw__p02</text>
<text class="label" x="676" y="358">22. ivf_flat__p05</text>
<text class="label" x="676" y="372">23. ivf_sq8__p05</text>
<text class="label" x="676" y="386">24. ivf_flat__p04</text>
<text class="label" x="676" y="400">25. hnsw__p01</text>
<text class="label" x="676" y="414">26. ivf_sq8__p04</text>
<text class="label" x="676" y="428">27. ivf_flat__p03</text>
<text class="label" x="676" y="442">28. ivf_sq8__p03</text>
<text class="label" x="676" y="456">29. pq</text>
<text class="label" x="676" y="470">30. ivf_sq8__p02</text>
<text class="label" x="676" y="484">31. ivf_flat__p02</text>
<text class="label" x="676" y="498">32. ivf_pq__p09</text>
<text class="label" x="676" y="512">33. ivf_pq__p10</text>
<text class="label" x="676" y="526">34. ivf_pq__p08</text>
<text class="label" x="676" y="540">35. ivf_pq__p07</text>
<text class="label" x="676" y="554">36. ivf_pq__p06</text>
<text class="label" x="676" y="568">37. ivf_pq__p05</text>
<text class="label" x="676" y="582">38. ivf_sq8__p01</text>
<text class="label" x="676" y="596">39. ivf_pq__p04</text>
<text class="label" x="676" y="610">40. ivf_pq__p03</text>
<text class="label" x="676" y="624">41. ivf_pq__p02</text>
<text class="label" x="676" y="638">42. ivf_flat__p01</text>
<text class="label" x="676" y="652">43. ivf_pq__p01</text>
<text class="label" x="676" y="666">44. lsh__p10</text>
<text class="label" x="676" y="680">45. lsh__p09</text>
<text class="label" x="676" y="694">46. lsh__p08</text>
<text class="label" x="676" y="708">47. lsh__p07</text>
<text class="label" x="676" y="722">48. lsh__p06</text>
<text class="label" x="676" y="736">49. lsh__p05</text>
<text class="label" x="676" y="750">50. lsh__p04</text>
<text class="label" x="676" y="764">51. lsh__p03</text>
<text class="label" x="676" y="778">52. lsh__p02</text>
<text class="label" x="676" y="792">53. lsh__p01</text>
</svg>