<svg xmlns="http://www.w3.org/2000/svg" width="920" height="460" viewBox="0 0 920 460">
<style>text{font-family:Arial,sans-serif;fill:#111}.axis{stroke:#111;stroke-width:1.1}.grid{stroke:#999;stroke-dasharray:3 3;opacity:.35}.label{font-size:11px}.title{font-size:14px;font-weight:600}.index{font-size:10px;font-weight:600}</style>
<rect x="0" y="0" width="100%" height="100%" fill="#fff"/>
<text class="title" x="78" y="24">QPS vs Recall — random</text>
<line class="axis" x1="78" y1="400" x2="660" y2="400"/>
<line class="axis" x1="78" y1="400" x2="78" y2="42"/>
<line class="grid" x1="78" y1="400.00" x2="660" y2="400.00"/>
<text class="label" x="68" y="404.00" text-anchor="end">0.95</text>
<line class="grid" x1="78" y1="310.50" x2="660" y2="310.50"/>
<text class="label" x="68" y="314.50" text-anchor="end">0.97</text>
<line class="grid" x1="78" y1="221.00" x2="660" y2="221.00"/>
<text class="label" x="68" y="225.00" text-anchor="end">1.00</text>
<line class="grid" x1="78" y1="131.50" x2="660" y2="131.50"/>
<text class="label" x="68" y="135.50" text-anchor="end">1.02</text>
<line class="grid" x1="78" y1="42.00" x2="660" y2="42.00"/>
<text class="label" x="68" y="46.00" text-anchor="end">1.05</text>
<text class="label" x="369.00" y="442" text-anchor="middle">QPS (log scale)</text>
<text class="label" x="18" y="221.00" transform="rotate(-90 18 221.00)" text-anchor="middle">recall</text>
<circle cx="398.30" cy="221.00" r="4.4" fill="#d62728" stroke="#111" stroke-width="0.6"/>
<text class="index" x="404.30" y="217.00">1</text>
<text class="label" x="676" y="50">Labels</text>
<text class="label" x="676" y="64">1. exact</text>
</svg>