<svg xmlns="http://www.w3.org/2000/svg" width="880" height="440" viewBox="0 0 880 440">
<style>
:root { --bg: #ffffff; --fg: #111111; --axis: #111111; --grid: #999999; }
@media (prefers-color-scheme: dark) {
  :root { --bg: #0f1115; --fg: #f2f2f2; --axis: #f2f2f2; --grid: #b0b0b0; }
}
text { font-family: Arial, sans-serif; fill: var(--fg); }
.axis { stroke: var(--axis); stroke-width: 1; }
.grid { stroke: var(--grid); stroke-width: 0.6; stroke-dasharray: 3 3; opacity: 0.4; }
.label { font-size: 11px; }
.title { font-size: 14px; font-weight: 600; }
.bg { fill: var(--bg); }
.index { font-size: 10px; font-weight: 600; }
</style>
<rect class="bg" x="0" y="0" width="100%" height="100%" />
<text class="title" x="70" y="22">QPS vs Recall — random</text>
<line class="axis" x1="70" y1="385" x2="660" y2="385" />
<line class="axis" x1="70" y1="385" x2="70" y2="40" />
<line class="grid" x1="105.52072382306744" y1="385" x2="105.52072382306744" y2="40" />
<text class="label" x="105.52072382306744" y="403" text-anchor="middle">10</text>
<line class="grid" x1="281.537344235613" y1="385" x2="281.537344235613" y2="40" />
<text class="label" x="281.537344235613" y="403" text-anchor="middle">100</text>
<line class="grid" x1="457.5539646481584" y1="385" x2="457.5539646481584" y2="40" />
<text class="label" x="457.5539646481584" y="403" text-anchor="middle">1,000</text>
<line class="grid" x1="633.5705850607039" y1="385" x2="633.5705850607039" y2="40" />
<text class="label" x="633.5705850607039" y="403" text-anchor="middle">10,000</text>
<line class="grid" x1="70" y1="359.25373134328356" x2="660" y2="359.25373134328356" />
<text class="label" x="60" y="363.25373134328356" text-anchor="end">0.4</text>
<line class="grid" x1="70" y1="256.2686567164179" x2="660" y2="256.2686567164179" />
<text class="label" x="60" y="260.2686567164179" text-anchor="end">0.6</text>
<line class="grid" x1="70" y1="153.28358208955223" x2="660" y2="153.28358208955223" />
<text class="label" x="60" y="157.28358208955223" text-anchor="end">0.8</text>
<line class="grid" x1="70" y1="50.29850746268656" x2="660" y2="50.29850746268656" />
<text class="label" x="60" y="54.29850746268656" text-anchor="end">1.0</text>
<text class="label" x="365.0" y="425" text-anchor="middle">QPS (log scale)</text>
<text class="label" x="16" y="212.5" transform="rotate(-90 16 212.5)" text-anchor="middle">Recall (topk=20)</text>
<circle cx="334.22" cy="50.30" r="4.2" fill="#d62728" stroke="#111" stroke-width="0.6" />
<text class="index" x="340.22" y="46.30">1</text>
<circle cx="190.63" cy="50.30" r="4.2" fill="#d62728" stroke="#111" stroke-width="0.6" />
<text class="index" x="196.63" y="46.30">2</text>
<circle cx="117.28" cy="50.30" r="4.2" fill="#d62728" stroke="#111" stroke-width="0.6" />
<text class="index" x="123.28" y="46.30">3</text>
<circle cx="87.06" cy="50.30" r="4.2" fill="#d62728" stroke="#111" stroke-width="0.6" />
<text class="index" x="93.06" y="46.30">4</text>
<circle cx="579.72" cy="67.19" r="4.2" fill="#d62728" stroke="#111" stroke-width="0.6" />
<text class="index" x="585.72" y="63.19">5</text>
<circle cx="513.81" cy="67.19" r="4.2" fill="#d62728" stroke="#111" stroke-width="0.6" />
<text class="index" x="519.81" y="63.19">6</text>
<circle cx="553.05" cy="93.34" r="4.2" fill="#d62728" stroke="#111" stroke-width="0.6" />
<text class="index" x="559.05" y="89.34">7</text>
<circle cx="646.06" cy="303.13" r="4.2" fill="#d62728" stroke="#111" stroke-width="0.6" />
<text class="index" x="652.06" y="299.13">8</text>
<circle cx="560.92" cy="303.13" r="4.2" fill="#d62728" stroke="#111" stroke-width="0.6" />
<text class="index" x="566.92" y="299.13">9</text>
<circle cx="615.40" cy="353.82" r="4.2" fill="#d62728" stroke="#111" stroke-width="0.6" />
<text class="index" x="621.40" y="349.82">10</text>
<text class="label" x="676" y="46">Labels</text>
<text class="label" x="676" y="60">1. exact</text>
<text class="label" x="676" y="74">2. covertree_v2_2</text>
<text class="label" x="676" y="88">3. covertree_v2</text>
<text class="label" x="676" y="102">4. covertree</text>
<text class="label" x="676" y="116">5. pq</text>
<text class="label" x="676" y="130">6. faiss_lsh</text>
<text class="label" x="676" y="144">7. hnsw</text>
<text class="label" x="676" y="158">8. ivf_sq8</text>
<text class="label" x="676" y="172">9. ivf_pq</text>
<text class="label" x="676" y="186">10. ivf_flat</text>
</svg>