<svg xmlns="http://www.w3.org/2000/svg" width="720" height="440" viewBox="0 0 720 440">
<style>
:root { --bg: #ffffff; --fg: #111111; --axis: #111111; --grid: #999999; --legend-bg: #ffffff; --legend-stroke: #cccccc; }
@media (prefers-color-scheme: dark) {
  :root { --bg: #0f1115; --fg: #f2f2f2; --axis: #f2f2f2; --grid: #b0b0b0; --legend-bg: #1b1f28; --legend-stroke: #5a5a5a; }
}
text { font-family: Arial, sans-serif; fill: var(--fg); }
.axis { stroke: var(--axis); stroke-width: 1; }
.grid { stroke: var(--grid); stroke-width: 0.6; stroke-dasharray: 3 3; opacity: 0.4; }
.label { font-size: 11px; }
.title { font-size: 14px; font-weight: 600; }
.legend { font-size: 10px; }
.bg { fill: var(--bg); }
.legend-box { fill: var(--legend-bg); stroke: var(--legend-stroke); stroke-width: 0.6; }
</style>
<rect class="bg" x="0" y="0" width="100%" height="100%" />
<text class="title" x="70" y="22">QPS vs Recall — random</text>
<line class="axis" x1="70" y1="385" x2="700" y2="385" />
<line class="axis" x1="70" y1="385" x2="70" y2="40" />
<line class="grid" x1="100.44407260142276" y1="385" x2="100.44407260142276" y2="40" />
<text class="label" x="100.44407260142276" y="403" text-anchor="middle">10</text>
<line class="grid" x1="251.30425207267118" y1="385" x2="251.30425207267118" y2="40" />
<text class="label" x="251.30425207267118" y="403" text-anchor="middle">100</text>
<line class="grid" x1="402.1644315439196" y1="385" x2="402.1644315439196" y2="40" />
<text class="label" x="402.1644315439196" y="403" text-anchor="middle">1,000</text>
<line class="grid" x1="553.0246110151679" y1="385" x2="553.0246110151679" y2="40" />
<text class="label" x="553.0246110151679" y="403" text-anchor="middle">10,000</text>
<line class="grid" x1="70" y1="359.25373134328356" x2="700" y2="359.25373134328356" />
<text class="label" x="60" y="363.25373134328356" text-anchor="end">0.4</text>
<line class="grid" x1="70" y1="256.2686567164179" x2="700" y2="256.2686567164179" />
<text class="label" x="60" y="260.2686567164179" text-anchor="end">0.6</text>
<line class="grid" x1="70" y1="153.28358208955223" x2="700" y2="153.28358208955223" />
<text class="label" x="60" y="157.28358208955223" text-anchor="end">0.8</text>
<line class="grid" x1="70" y1="50.29850746268656" x2="700" y2="50.29850746268656" />
<text class="label" x="60" y="54.29850746268656" text-anchor="end">1.0</text>
<text class="label" x="385.0" y="425" text-anchor="middle">QPS (log scale)</text>
<text class="label" x="16" y="212.5" transform="rotate(-90 16 212.5)" text-anchor="middle">Recall (topk=20)</text>
<circle cx="328.26" cy="50.30" r="4.2" fill="#1f77b4" stroke="#111" stroke-width="0.6" />
<text class="label" x="334.26" y="54.30">exact</text>
<circle cx="516.11" cy="92.34" r="4.2" fill="#1f77b4" stroke="#111" stroke-width="0.6" />
<text class="label" x="522.11" y="96.34">hnsw</text>
<circle cx="570.87" cy="353.82" r="4.2" fill="#1f77b4" stroke="#111" stroke-width="0.6" />
<text class="label" x="576.87" y="357.82">ivf_flat</text>
<circle cx="521.69" cy="303.13" r="4.2" fill="#1f77b4" stroke="#111" stroke-width="0.6" />
<text class="label" x="527.69" y="307.13">ivf_pq</text>
<circle cx="688.05" cy="303.13" r="4.2" fill="#1f77b4" stroke="#111" stroke-width="0.6" />
<text class="label" x="694.05" y="307.13">ivf_sq8</text>
<circle cx="493.73" cy="67.19" r="4.2" fill="#1f77b4" stroke="#111" stroke-width="0.6" />
<text class="label" x="499.73" y="71.19">pq</text>
<circle cx="487.90" cy="67.19" r="4.2" fill="#1f77b4" stroke="#111" stroke-width="0.6" />
<text class="label" x="493.90" y="71.19">faiss_lsh</text>
<circle cx="93.41" cy="50.30" r="4.2" fill="#1f77b4" stroke="#111" stroke-width="0.6" />
<text class="label" x="99.41" y="54.30">covertree</text>
<circle cx="116.52" cy="50.30" r="4.2" fill="#1f77b4" stroke="#111" stroke-width="0.6" />
<text class="label" x="122.52" y="54.30">covertree_v2</text>
<rect x="292.26" y="46.10" width="8.4" height="8.4" fill="#d62728" stroke="#111" stroke-width="0.6" />
<text class="label" x="302.46" y="54.30">exact</text>
<rect x="479.81" y="89.14" width="8.4" height="8.4" fill="#d62728" stroke="#111" stroke-width="0.6" />
<text class="label" x="490.01" y="97.34">hnsw</text>
<rect x="533.25" y="349.62" width="8.4" height="8.4" fill="#d62728" stroke="#111" stroke-width="0.6" />
<text class="label" x="543.45" y="357.82">ivf_flat</text>
<rect x="486.56" y="298.93" width="8.4" height="8.4" fill="#d62728" stroke="#111" stroke-width="0.6" />
<text class="label" x="496.76" y="307.13">ivf_pq</text>
<rect x="559.53" y="298.93" width="8.4" height="8.4" fill="#d62728" stroke="#111" stroke-width="0.6" />
<text class="label" x="569.73" y="307.13">ivf_sq8</text>
<rect x="502.67" y="62.99" width="8.4" height="8.4" fill="#d62728" stroke="#111" stroke-width="0.6" />
<text class="label" x="512.87" y="71.19">pq</text>
<rect x="446.18" y="62.99" width="8.4" height="8.4" fill="#d62728" stroke="#111" stroke-width="0.6" />
<text class="label" x="456.38" y="71.19">faiss_lsh</text>
<rect x="80.42" y="46.10" width="8.4" height="8.4" fill="#d62728" stroke="#111" stroke-width="0.6" />
<text class="label" x="90.62" y="54.30">covertree</text>
<rect x="106.32" y="46.10" width="8.4" height="8.4" fill="#d62728" stroke="#111" stroke-width="0.6" />
<text class="label" x="116.52" y="54.30">covertree_v2</text>
<rect x="169.19" y="46.10" width="8.4" height="8.4" fill="#d62728" stroke="#111" stroke-width="0.6" />
<text class="label" x="179.39" y="54.30">covertree_v2_2</text>
<rect x="522" y="36" width="170" height="40" class="legend-box" />
<circle cx="530" cy="50" r="4.2" fill="#1f77b4" stroke="#111" stroke-width="0.6" />
<text class="legend" x="540" y="53">2025-12-04 15:29:57</text>
<rect x="525.8" y="59.8" width="8.4" height="8.4" fill="#d62728" stroke="#111" stroke-width="0.6" />
<text class="legend" x="540" y="67">2025-12-04 17:33:18</text>
</svg>