<svg xmlns="http://www.w3.org/2000/svg" width="860" height="440" viewBox="0 0 860 440">
<style>
:root { --bg: #ffffff; --fg: #111111; --axis: #111111; --grid: #999999; --legend-bg: #ffffff; --legend-stroke: #cccccc; --leader: #666666; }
@media (prefers-color-scheme: dark) {
  :root { --bg: #0f1115; --fg: #f2f2f2; --axis: #f2f2f2; --grid: #b0b0b0; --legend-bg: #1b1f28; --legend-stroke: #5a5a5a; --leader: #b0b0b0; }
}
text { font-family: Arial, sans-serif; fill: var(--fg); }
.axis { stroke: var(--axis); stroke-width: 1; }
.grid { stroke: var(--grid); stroke-width: 0.6; stroke-dasharray: 3 3; opacity: 0.4; }
.label { font-size: 11px; }
.title { font-size: 14px; font-weight: 600; }
.legend { font-size: 10px; }
.bg { fill: var(--bg); }
.legend-box { fill: var(--legend-bg); stroke: var(--legend-stroke); stroke-width: 0.6; }
.leader { stroke: var(--leader); stroke-width: 0.8; opacity: 0.7; }
</style>
<rect class="bg" x="0" y="0" width="100%" height="100%" />
<text class="title" x="70" y="22">QPS vs Recall — random</text>
<line class="axis" x1="70" y1="385" x2="680" y2="385" />
<line class="axis" x1="70" y1="385" x2="70" y2="40" />
<line class="grid" x1="99.47759410613949" y1="385" x2="99.47759410613949" y2="40" />
<text class="label" x="99.47759410613949" y="403" text-anchor="middle">10</text>
<line class="grid" x1="245.5485615306816" y1="385" x2="245.5485615306816" y2="40" />
<text class="label" x="245.5485615306816" y="403" text-anchor="middle">100</text>
<line class="grid" x1="391.6195289552237" y1="385" x2="391.6195289552237" y2="40" />
<text class="label" x="391.6195289552237" y="403" text-anchor="middle">1,000</text>
<line class="grid" x1="537.6904963797658" y1="385" x2="537.6904963797658" y2="40" />
<text class="label" x="537.6904963797658" y="403" text-anchor="middle">10,000</text>
<line class="grid" x1="70" y1="359.25373134328356" x2="680" y2="359.25373134328356" />
<text class="label" x="60" y="363.25373134328356" text-anchor="end">0.4</text>
<line class="grid" x1="70" y1="256.2686567164179" x2="680" y2="256.2686567164179" />
<text class="label" x="60" y="260.2686567164179" text-anchor="end">0.6</text>
<line class="grid" x1="70" y1="153.28358208955223" x2="680" y2="153.28358208955223" />
<text class="label" x="60" y="157.28358208955223" text-anchor="end">0.8</text>
<line class="grid" x1="70" y1="50.29850746268656" x2="680" y2="50.29850746268656" />
<text class="label" x="60" y="54.29850746268656" text-anchor="end">1.0</text>
<text class="label" x="375.0" y="425" text-anchor="middle">QPS (log scale)</text>
<text class="label" x="16" y="212.5" transform="rotate(-90 16 212.5)" text-anchor="middle">Recall (topk=20)</text>
<circle cx="320.06" cy="50.30" r="4.2" fill="#1f77b4" stroke="#111" stroke-width="0.6" />
<line class="leader" x1="320.06" y1="50.30" x2="686.00" y2="50.30" />
<text class="label" x="692.00" y="54.30">exact</text>
<circle cx="501.95" cy="92.34" r="4.2" fill="#1f77b4" stroke="#111" stroke-width="0.6" />
<line class="leader" x1="501.95" y1="92.34" x2="686.00" y2="182.30" />
<text class="label" x="692.00" y="186.30">hnsw</text>
<circle cx="554.97" cy="353.82" r="4.2" fill="#1f77b4" stroke="#111" stroke-width="0.6" />
<line class="leader" x1="554.97" y1="353.82" x2="686.00" y2="353.82" />
<text class="label" x="692.00" y="357.82">ivf_flat</text>
<circle cx="507.35" cy="303.13" r="4.2" fill="#1f77b4" stroke="#111" stroke-width="0.6" />
<line class="leader" x1="507.35" y1="303.13" x2="686.00" y2="303.13" />
<text class="label" x="692.00" y="307.13">ivf_pq</text>
<circle cx="668.43" cy="303.13" r="4.2" fill="#1f77b4" stroke="#111" stroke-width="0.6" />
<line class="leader" x1="668.43" y1="303.13" x2="686.00" y2="315.13" />
<text class="label" x="692.00" y="319.13">ivf_sq8</text>
<circle cx="480.28" cy="67.19" r="4.2" fill="#1f77b4" stroke="#111" stroke-width="0.6" />
<line class="leader" x1="480.28" y1="67.19" x2="686.00" y2="134.30" />
<text class="label" x="692.00" y="138.30">pq</text>
<circle cx="474.63" cy="67.19" r="4.2" fill="#1f77b4" stroke="#111" stroke-width="0.6" />
<line class="leader" x1="474.63" y1="67.19" x2="686.00" y2="146.30" />
<text class="label" x="692.00" y="150.30">faiss_lsh</text>
<circle cx="92.67" cy="50.30" r="4.2" fill="#1f77b4" stroke="#111" stroke-width="0.6" />
<line class="leader" x1="92.67" y1="50.30" x2="686.00" y2="62.30" />
<text class="label" x="692.00" y="66.30">covertree</text>
<circle cx="115.04" cy="50.30" r="4.2" fill="#1f77b4" stroke="#111" stroke-width="0.6" />
<line class="leader" x1="115.04" y1="50.30" x2="686.00" y2="74.30" />
<text class="label" x="692.00" y="78.30">covertree_v2</text>
<rect x="285.07" y="46.10" width="8.4" height="8.4" fill="#d62728" stroke="#111" stroke-width="0.6" />
<line class="leader" x1="289.27" y1="50.30" x2="686.00" y2="86.30" />
<text class="label" x="692.00" y="90.30">exact</text>
<rect x="466.67" y="89.14" width="8.4" height="8.4" fill="#d62728" stroke="#111" stroke-width="0.6" />
<line class="leader" x1="470.87" y1="93.34" x2="686.00" y2="194.30" />
<text class="label" x="692.00" y="198.30">hnsw</text>
<rect x="518.41" y="349.62" width="8.4" height="8.4" fill="#d62728" stroke="#111" stroke-width="0.6" />
<line class="leader" x1="522.61" y1="353.82" x2="686.00" y2="365.82" />
<text class="label" x="692.00" y="369.82">ivf_flat</text>
<rect x="473.20" y="298.93" width="8.4" height="8.4" fill="#d62728" stroke="#111" stroke-width="0.6" />
<line class="leader" x1="477.40" y1="303.13" x2="686.00" y2="327.13" />
<text class="label" x="692.00" y="331.13">ivf_pq</text>
<rect x="543.86" y="298.93" width="8.4" height="8.4" fill="#d62728" stroke="#111" stroke-width="0.6" />
<line class="leader" x1="548.06" y1="303.13" x2="686.00" y2="339.13" />
<text class="label" x="692.00" y="343.13">ivf_sq8</text>
<rect x="488.80" y="62.99" width="8.4" height="8.4" fill="#d62728" stroke="#111" stroke-width="0.6" />
<line class="leader" x1="493.00" y1="67.19" x2="686.00" y2="158.30" />
<text class="label" x="692.00" y="162.30">pq</text>
<rect x="434.10" y="62.99" width="8.4" height="8.4" fill="#d62728" stroke="#111" stroke-width="0.6" />
<line class="leader" x1="438.30" y1="67.19" x2="686.00" y2="170.30" />
<text class="label" x="692.00" y="174.30">faiss_lsh</text>
<rect x="79.96" y="46.10" width="8.4" height="8.4" fill="#d62728" stroke="#111" stroke-width="0.6" />
<line class="leader" x1="84.16" y1="50.30" x2="686.00" y2="98.30" />
<text class="label" x="692.00" y="102.30">covertree</text>
<rect x="105.03" y="46.10" width="8.4" height="8.4" fill="#d62728" stroke="#111" stroke-width="0.6" />
<line class="leader" x1="109.23" y1="50.30" x2="686.00" y2="110.30" />
<text class="label" x="692.00" y="114.30">covertree_v2</text>
<rect x="165.90" y="46.10" width="8.4" height="8.4" fill="#d62728" stroke="#111" stroke-width="0.6" />
<line class="leader" x1="170.10" y1="50.30" x2="686.00" y2="122.30" />
<text class="label" x="692.00" y="126.30">covertree_v2_2</text>
<rect class="legend-box" x="532" y="40" width="140" height="36" />
<circle cx="540" cy="54" r="4.2" fill="#1f77b4" stroke="#111" stroke-width="0.6" />
<text class="legend" x="550" y="57">2025-12-04 15:29:57</text>
<rect x="535.8" y="63.8" width="8.4" height="8.4" fill="#d62728" stroke="#111" stroke-width="0.6" />
<text class="legend" x="550" y="71">2025-12-04 17:33:18</text>
</svg>