<svg xmlns="http://www.w3.org/2000/svg" width="720" height="440" viewBox="0 0 720 440">
<style>
text { font-family: Arial, sans-serif; fill: #111; }
.axis { stroke: #111; stroke-width: 1; }
.grid { stroke: #999; stroke-width: 0.6; stroke-dasharray: 3 3; opacity: 0.4; }
.label { font-size: 11px; }
.title { font-size: 14px; font-weight: 600; }
.legend { font-size: 10px; }
</style>
<text class="title" x="70" y="22">QPS vs Recall — glove50</text>
<line class="axis" x1="70" y1="385" x2="700" y2="385" />
<line class="axis" x1="70" y1="385" x2="70" y2="40" />
<line class="grid" x1="106.94524222813601" y1="385" x2="106.94524222813601" y2="40" />
<text class="label" x="106.94524222813601" y="403" text-anchor="middle">10</text>
<line class="grid" x1="288.5257737579963" y1="385" x2="288.5257737579963" y2="40" />
<text class="label" x="288.5257737579963" y="403" text-anchor="middle">100</text>
<line class="grid" x1="470.1063052878567" y1="385" x2="470.1063052878567" y2="40" />
<text class="label" x="470.1063052878567" y="403" text-anchor="middle">1,000</text>
<line class="grid" x1="651.686836817717" y1="385" x2="651.686836817717" y2="40" />
<text class="label" x="651.686836817717" y="403" text-anchor="middle">10,000</text>
<line class="grid" x1="70" y1="359.25373134328356" x2="700" y2="359.25373134328356" />
<text class="label" x="60" y="363.25373134328356" text-anchor="end">0.4</text>
<line class="grid" x1="70" y1="256.2686567164179" x2="700" y2="256.2686567164179" />
<text class="label" x="60" y="260.2686567164179" text-anchor="end">0.6</text>
<line class="grid" x1="70" y1="153.28358208955223" x2="700" y2="153.28358208955223" />
<text class="label" x="60" y="157.28358208955223" text-anchor="end">0.8</text>
<line class="grid" x1="70" y1="50.29850746268656" x2="700" y2="50.29850746268656" />
<text class="label" x="60" y="54.29850746268656" text-anchor="end">1.0</text>
<text class="label" x="385.0" y="425" text-anchor="middle">QPS (log scale)</text>
<text class="label" x="16" y="212.5" transform="rotate(-90 16 212.5)" text-anchor="middle">Recall (topk=20)</text>
<circle cx="398.44" cy="50.30" r="4.2" fill="#1f77b4" stroke="#111" stroke-width="0.6" />
<text class="label" x="404.44" y="54.30">exact</text>
<circle cx="600.64" cy="62.17" r="4.2" fill="#1f77b4" stroke="#111" stroke-width="0.6" />
<text class="label" x="606.64" y="66.17">hnsw</text>
<circle cx="631.15" cy="117.28" r="4.2" fill="#1f77b4" stroke="#111" stroke-width="0.6" />
<text class="label" x="637.15" y="121.28">ivf_flat</text>
<circle cx="627.58" cy="96.96" r="4.2" fill="#1f77b4" stroke="#111" stroke-width="0.6" />
<text class="label" x="633.58" y="100.96">ivf_pq</text>
<circle cx="605.04" cy="95.96" r="4.2" fill="#1f77b4" stroke="#111" stroke-width="0.6" />
<text class="label" x="611.04" y="99.96">ivf_sq8</text>
<circle cx="551.89" cy="59.55" r="4.2" fill="#1f77b4" stroke="#111" stroke-width="0.6" />
<text class="label" x="557.89" y="63.55">pq</text>
<circle cx="512.36" cy="51.30" r="4.2" fill="#1f77b4" stroke="#111" stroke-width="0.6" />
<text class="label" x="518.36" y="55.30">faiss_lsh</text>
<circle cx="98.18" cy="50.30" r="4.2" fill="#1f77b4" stroke="#111" stroke-width="0.6" />
<text class="label" x="104.18" y="54.30">covertree</text>
<circle cx="124.78" cy="50.30" r="4.2" fill="#1f77b4" stroke="#111" stroke-width="0.6" />
<text class="label" x="130.78" y="54.30">covertree_v2</text>
<rect x="363.18" y="46.10" width="8.4" height="8.4" fill="#d62728" stroke="#111" stroke-width="0.6" />
<text class="label" x="373.38" y="54.30">exact</text>
<rect x="629.26" y="59.17" width="8.4" height="8.4" fill="#d62728" stroke="#111" stroke-width="0.6" />
<text class="label" x="639.46" y="67.37">hnsw</text>
<rect x="681.42" y="113.08" width="8.4" height="8.4" fill="#d62728" stroke="#111" stroke-width="0.6" />
<text class="label" x="691.62" y="121.28">ivf_flat</text>
<rect x="666.86" y="92.76" width="8.4" height="8.4" fill="#d62728" stroke="#111" stroke-width="0.6" />
<text class="label" x="677.06" y="100.96">ivf_pq</text>
<rect x="654.61" y="91.76" width="8.4" height="8.4" fill="#d62728" stroke="#111" stroke-width="0.6" />
<text class="label" x="664.81" y="99.96">ivf_sq8</text>
<rect x="577.21" y="55.35" width="8.4" height="8.4" fill="#d62728" stroke="#111" stroke-width="0.6" />
<text class="label" x="587.41" y="63.55">pq</text>
<rect x="529.08" y="47.10" width="8.4" height="8.4" fill="#d62728" stroke="#111" stroke-width="0.6" />
<text class="label" x="539.28" y="55.30">faiss_lsh</text>
<rect x="83.40" y="46.10" width="8.4" height="8.4" fill="#d62728" stroke="#111" stroke-width="0.6" />
<text class="label" x="93.60" y="54.30">covertree</text>
<rect x="113.75" y="46.10" width="8.4" height="8.4" fill="#d62728" stroke="#111" stroke-width="0.6" />
<text class="label" x="123.95" y="54.30">covertree_v2</text>
<rect x="192.33" y="46.10" width="8.4" height="8.4" fill="#d62728" stroke="#111" stroke-width="0.6" />
<text class="label" x="202.53" y="54.30">covertree_v2_2</text>
<rect x="522" y="36" width="170" height="40" fill="white" stroke="#ccc" stroke-width="0.6" />
<circle cx="530" cy="50" r="4.2" fill="#1f77b4" stroke="#111" stroke-width="0.6" />
<text class="legend" x="540" y="53">2025-12-04 15:29:57</text>
<rect x="525.8" y="59.8" width="8.4" height="8.4" fill="#d62728" stroke="#111" stroke-width="0.6" />
<text class="legend" x="540" y="67">2025-12-04 17:33:18</text>
</svg>