<svg xmlns="http://www.w3.org/2000/svg" width="860" height="440" viewBox="0 0 860 440">
<style>
:root { --bg: #ffffff; --fg: #111111; --axis: #111111; --grid: #999999; --legend-bg: #ffffff; --legend-stroke: #cccccc; --leader: #666666; }
@media (prefers-color-scheme: dark) {
  :root { --bg: #0f1115; --fg: #f2f2f2; --axis: #f2f2f2; --grid: #b0b0b0; --legend-bg: #1b1f28; --legend-stroke: #5a5a5a; --leader: #b0b0b0; }
}
text { font-family: Arial, sans-serif; fill: var(--fg); }
.axis { stroke: var(--axis); stroke-width: 1; }
.grid { stroke: var(--grid); stroke-width: 0.6; stroke-dasharray: 3 3; opacity: 0.4; }
.label { font-size: 11px; }
.title { font-size: 14px; font-weight: 600; }
.legend { font-size: 10px; }
.bg { fill: var(--bg); }
.legend-box { fill: var(--legend-bg); stroke: var(--legend-stroke); stroke-width: 0.6; }
.leader { stroke: var(--leader); stroke-width: 0.8; opacity: 0.7; }
</style>
<rect class="bg" x="0" y="0" width="100%" height="100%" />
<text class="title" x="70" y="22">QPS vs Recall — glove50</text>
<line class="axis" x1="70" y1="385" x2="680" y2="385" />
<line class="axis" x1="70" y1="385" x2="70" y2="40" />
<line class="grid" x1="105.77237739549676" y1="385" x2="105.77237739549676" y2="40" />
<text class="label" x="105.77237739549676" y="403" text-anchor="middle">10</text>
<line class="grid" x1="281.5884476069488" y1="385" x2="281.5884476069488" y2="40" />
<text class="label" x="281.5884476069488" y="403" text-anchor="middle">100</text>
<line class="grid" x1="457.4045178184009" y1="385" x2="457.4045178184009" y2="40" />
<text class="label" x="457.4045178184009" y="403" text-anchor="middle">1,000</text>
<line class="grid" x1="633.2205880298529" y1="385" x2="633.2205880298529" y2="40" />
<text class="label" x="633.2205880298529" y="403" text-anchor="middle">10,000</text>
<line class="grid" x1="70" y1="359.25373134328356" x2="680" y2="359.25373134328356" />
<text class="label" x="60" y="363.25373134328356" text-anchor="end">0.4</text>
<line class="grid" x1="70" y1="256.2686567164179" x2="680" y2="256.2686567164179" />
<text class="label" x="60" y="260.2686567164179" text-anchor="end">0.6</text>
<line class="grid" x1="70" y1="153.28358208955223" x2="680" y2="153.28358208955223" />
<text class="label" x="60" y="157.28358208955223" text-anchor="end">0.8</text>
<line class="grid" x1="70" y1="50.29850746268656" x2="680" y2="50.29850746268656" />
<text class="label" x="60" y="54.29850746268656" text-anchor="end">1.0</text>
<text class="label" x="375.0" y="425" text-anchor="middle">QPS (log scale)</text>
<text class="label" x="16" y="212.5" transform="rotate(-90 16 212.5)" text-anchor="middle">Recall (topk=20)</text>
<circle cx="388.01" cy="50.30" r="4.2" fill="#1f77b4" stroke="#111" stroke-width="0.6" />
<line class="leader" x1="388.01" y1="50.30" x2="686.00" y2="50.30" />
<text class="label" x="692.00" y="54.30">exact</text>
<circle cx="583.79" cy="62.17" r="4.2" fill="#1f77b4" stroke="#111" stroke-width="0.6" />
<line class="leader" x1="583.79" y1="62.17" x2="686.00" y2="182.30" />
<text class="label" x="692.00" y="186.30">hnsw</text>
<circle cx="613.33" cy="117.28" r="4.2" fill="#1f77b4" stroke="#111" stroke-width="0.6" />
<line class="leader" x1="613.33" y1="117.28" x2="686.00" y2="254.30" />
<text class="label" x="692.00" y="258.30">ivf_flat</text>
<circle cx="609.88" cy="96.96" r="4.2" fill="#1f77b4" stroke="#111" stroke-width="0.6" />
<line class="leader" x1="609.88" y1="96.96" x2="686.00" y2="230.30" />
<text class="label" x="692.00" y="234.30">ivf_pq</text>
<circle cx="588.06" cy="95.96" r="4.2" fill="#1f77b4" stroke="#111" stroke-width="0.6" />
<line class="leader" x1="588.06" y1="95.96" x2="686.00" y2="206.30" />
<text class="label" x="692.00" y="210.30">ivf_sq8</text>
<circle cx="536.59" cy="59.55" r="4.2" fill="#1f77b4" stroke="#111" stroke-width="0.6" />
<line class="leader" x1="536.59" y1="59.55" x2="686.00" y2="158.30" />
<text class="label" x="692.00" y="162.30">pq</text>
<circle cx="498.31" cy="51.30" r="4.2" fill="#1f77b4" stroke="#111" stroke-width="0.6" />
<line class="leader" x1="498.31" y1="51.30" x2="686.00" y2="134.30" />
<text class="label" x="692.00" y="138.30">faiss_lsh</text>
<circle cx="97.28" cy="50.30" r="4.2" fill="#1f77b4" stroke="#111" stroke-width="0.6" />
<line class="leader" x1="97.28" y1="50.30" x2="686.00" y2="62.30" />
<text class="label" x="692.00" y="66.30">covertree</text>
<circle cx="123.04" cy="50.30" r="4.2" fill="#1f77b4" stroke="#111" stroke-width="0.6" />
<line class="leader" x1="123.04" y1="50.30" x2="686.00" y2="74.30" />
<text class="label" x="692.00" y="78.30">covertree_v2</text>
<rect x="353.74" y="46.10" width="8.4" height="8.4" fill="#d62728" stroke="#111" stroke-width="0.6" />
<line class="leader" x1="357.94" y1="50.30" x2="686.00" y2="86.30" />
<text class="label" x="692.00" y="90.30">exact</text>
<rect x="611.37" y="59.17" width="8.4" height="8.4" fill="#d62728" stroke="#111" stroke-width="0.6" />
<line class="leader" x1="615.57" y1="63.37" x2="686.00" y2="194.30" />
<text class="label" x="692.00" y="198.30">hnsw</text>
<rect x="661.88" y="113.08" width="8.4" height="8.4" fill="#d62728" stroke="#111" stroke-width="0.6" />
<line class="leader" x1="666.08" y1="117.28" x2="686.00" y2="266.30" />
<text class="label" x="692.00" y="270.30">ivf_flat</text>
<rect x="647.78" y="92.76" width="8.4" height="8.4" fill="#d62728" stroke="#111" stroke-width="0.6" />
<line class="leader" x1="651.98" y1="96.96" x2="686.00" y2="242.30" />
<text class="label" x="692.00" y="246.30">ivf_pq</text>
<rect x="635.92" y="91.76" width="8.4" height="8.4" fill="#d62728" stroke="#111" stroke-width="0.6" />
<line class="leader" x1="640.12" y1="95.96" x2="686.00" y2="218.30" />
<text class="label" x="692.00" y="222.30">ivf_sq8</text>
<rect x="560.98" y="55.35" width="8.4" height="8.4" fill="#d62728" stroke="#111" stroke-width="0.6" />
<line class="leader" x1="565.18" y1="59.55" x2="686.00" y2="170.30" />
<text class="label" x="692.00" y="174.30">pq</text>
<rect x="514.37" y="47.10" width="8.4" height="8.4" fill="#d62728" stroke="#111" stroke-width="0.6" />
<line class="leader" x1="518.57" y1="51.30" x2="686.00" y2="146.30" />
<text class="label" x="692.00" y="150.30">faiss_lsh</text>
<rect x="82.84" y="46.10" width="8.4" height="8.4" fill="#d62728" stroke="#111" stroke-width="0.6" />
<line class="leader" x1="87.04" y1="50.30" x2="686.00" y2="98.30" />
<text class="label" x="692.00" y="102.30">covertree</text>
<rect x="112.22" y="46.10" width="8.4" height="8.4" fill="#d62728" stroke="#111" stroke-width="0.6" />
<line class="leader" x1="116.42" y1="50.30" x2="686.00" y2="110.30" />
<text class="label" x="692.00" y="114.30">covertree_v2</text>
<rect x="188.32" y="46.10" width="8.4" height="8.4" fill="#d62728" stroke="#111" stroke-width="0.6" />
<line class="leader" x1="192.52" y1="50.30" x2="686.00" y2="122.30" />
<text class="label" x="692.00" y="126.30">covertree_v2_2</text>
<rect class="legend-box" x="532" y="40" width="140" height="36" />
<circle cx="540" cy="54" r="4.2" fill="#1f77b4" stroke="#111" stroke-width="0.6" />
<text class="legend" x="550" y="57">2025-12-04 15:29:57</text>
<rect x="535.8" y="63.8" width="8.4" height="8.4" fill="#d62728" stroke="#111" stroke-width="0.6" />
<text class="legend" x="550" y="71">2025-12-04 17:33:18</text>
</svg>