<svg xmlns="http://www.w3.org/2000/svg" width="880" height="440" viewBox="0 0 880 440">
<style>
:root { --bg: #ffffff; --fg: #111111; --axis: #111111; --grid: #999999; }
@media (prefers-color-scheme: dark) {
  :root { --bg: #0f1115; --fg: #f2f2f2; --axis: #f2f2f2; --grid: #b0b0b0; }
}
text { font-family: Arial, sans-serif; fill: var(--fg); }
.axis { stroke: var(--axis); stroke-width: 1; }
.grid { stroke: var(--grid); stroke-width: 0.6; stroke-dasharray: 3 3; opacity: 0.4; }
.label { font-size: 11px; }
.title { font-size: 14px; font-weight: 600; }
.bg { fill: var(--bg); }
.index { font-size: 10px; font-weight: 600; }
</style>
<rect class="bg" x="0" y="0" width="100%" height="100%" />
<text class="title" x="70" y="22">QPS vs Recall — glove50</text>
<line class="axis" x1="70" y1="385" x2="660" y2="385" />
<line class="axis" x1="70" y1="385" x2="70" y2="40" />
<line class="grid" x1="104.59951256285753" y1="385" x2="104.59951256285753" y2="40" />
<text class="label" x="104.59951256285753" y="403" text-anchor="middle">10</text>
<line class="grid" x1="274.6511214559013" y1="385" x2="274.6511214559013" y2="40" />
<text class="label" x="274.6511214559013" y="403" text-anchor="middle">100</text>
<line class="grid" x1="444.7027303489451" y1="385" x2="444.7027303489451" y2="40" />
<text class="label" x="444.7027303489451" y="403" text-anchor="middle">1,000</text>
<line class="grid" x1="614.754339241989" y1="385" x2="614.754339241989" y2="40" />
<text class="label" x="614.754339241989" y="403" text-anchor="middle">10,000</text>
<line class="grid" x1="70" y1="359.25373134328356" x2="660" y2="359.25373134328356" />
<text class="label" x="60" y="363.25373134328356" text-anchor="end">0.4</text>
<line class="grid" x1="70" y1="256.2686567164179" x2="660" y2="256.2686567164179" />
<text class="label" x="60" y="260.2686567164179" text-anchor="end">0.6</text>
<line class="grid" x1="70" y1="153.28358208955223" x2="660" y2="153.28358208955223" />
<text class="label" x="60" y="157.28358208955223" text-anchor="end">0.8</text>
<line class="grid" x1="70" y1="50.29850746268656" x2="660" y2="50.29850746268656" />
<text class="label" x="60" y="54.29850746268656" text-anchor="end">1.0</text>
<text class="label" x="365.0" y="425" text-anchor="middle">QPS (log scale)</text>
<text class="label" x="16" y="212.5" transform="rotate(-90 16 212.5)" text-anchor="middle">Recall (topk=20)</text>
<circle cx="348.50" cy="50.30" r="4.2" fill="#d62728" stroke="#111" stroke-width="0.6" />
<text class="index" x="354.50" y="46.30">1</text>
<circle cx="188.50" cy="50.30" r="4.2" fill="#d62728" stroke="#111" stroke-width="0.6" />
<text class="index" x="194.50" y="46.30">2</text>
<circle cx="114.90" cy="50.30" r="4.2" fill="#d62728" stroke="#111" stroke-width="0.6" />
<text class="index" x="120.90" y="46.30">3</text>
<circle cx="86.48" cy="50.30" r="4.2" fill="#d62728" stroke="#111" stroke-width="0.6" />
<text class="index" x="92.48" y="46.30">4</text>
<circle cx="503.86" cy="51.30" r="4.2" fill="#d62728" stroke="#111" stroke-width="0.6" />
<text class="index" x="509.86" y="47.30">5</text>
<circle cx="548.94" cy="59.55" r="4.2" fill="#d62728" stroke="#111" stroke-width="0.6" />
<text class="index" x="554.94" y="55.55">6</text>
<circle cx="597.69" cy="63.37" r="4.2" fill="#d62728" stroke="#111" stroke-width="0.6" />
<text class="index" x="603.69" y="59.37">7</text>
<circle cx="621.43" cy="95.96" r="4.2" fill="#d62728" stroke="#111" stroke-width="0.6" />
<text class="index" x="627.43" y="91.96">8</text>
<circle cx="632.90" cy="96.96" r="4.2" fill="#d62728" stroke="#111" stroke-width="0.6" />
<text class="index" x="638.90" y="92.96">9</text>
<circle cx="646.54" cy="117.28" r="4.2" fill="#d62728" stroke="#111" stroke-width="0.6" />
<text class="index" x="652.54" y="113.28">10</text>
<text class="label" x="676" y="46">Labels</text>
<text class="label" x="676" y="60">1. exact</text>
<text class="label" x="676" y="74">2. covertree_v2_2</text>
<text class="label" x="676" y="88">3. covertree_v2</text>
<text class="label" x="676" y="102">4. covertree</text>
<text class="label" x="676" y="116">5. faiss_lsh</text>
<text class="label" x="676" y="130">6. pq</text>
<text class="label" x="676" y="144">7. hnsw</text>
<text class="label" x="676" y="158">8. ivf_sq8</text>
<text class="label" x="676" y="172">9. ivf_pq</text>
<text class="label" x="676" y="186">10. ivf_flat</text>
</svg>