<svg xmlns="http://www.w3.org/2000/svg" width="920" height="460" viewBox="0 0 920 460">
<style>text{font-family:Arial,sans-serif;fill:#111}.axis{stroke:#111;stroke-width:1.1}.grid{stroke:#999;stroke-dasharray:3 3;opacity:.35}.label{font-size:11px}.title{font-size:14px;font-weight:600}.index{font-size:10px;font-weight:600}</style>
<rect x="0" y="0" width="100%" height="100%" fill="#fff"/>
<text class="title" x="78" y="24">QPS vs Recall — random</text>
<line class="axis" x1="78" y1="400" x2="660" y2="400"/>
<line class="axis" x1="78" y1="400" x2="78" y2="42"/>
<line class="grid" x1="135.71" y1="400" x2="135.71" y2="42"/>
<text class="label" x="135.71" y="418" text-anchor="middle">100</text>
<line class="grid" x1="273.08" y1="400" x2="273.08" y2="42"/>
<text class="label" x="273.08" y="418" text-anchor="middle">1,000</text>
<line class="grid" x1="410.44" y1="400" x2="410.44" y2="42"/>
<text class="label" x="410.44" y="418" text-anchor="middle">10,000</text>
<line class="grid" x1="547.81" y1="400" x2="547.81" y2="42"/>
<text class="label" x="547.81" y="418" text-anchor="middle">100,000</text>
<line class="grid" x1="78" y1="400.00" x2="660" y2="400.00"/>
<text class="label" x="68" y="404.00" text-anchor="end">0.08</text>
<line class="grid" x1="78" y1="310.50" x2="660" y2="310.50"/>
<text class="label" x="68" y="314.50" text-anchor="end">0.32</text>
<line class="grid" x1="78" y1="221.00" x2="660" y2="221.00"/>
<text class="label" x="68" y="225.00" text-anchor="end">0.56</text>
<line class="grid" x1="78" y1="131.50" x2="660" y2="131.50"/>
<text class="label" x="68" y="135.50" text-anchor="end">0.81</text>
<line class="grid" x1="78" y1="42.00" x2="660" y2="42.00"/>
<text class="label" x="68" y="46.00" text-anchor="end">1.05</text>
<text class="label" x="369.00" y="442" text-anchor="middle">QPS (log scale)</text>
<text class="label" x="18" y="221.00" transform="rotate(-90 18 221.00)" text-anchor="middle">recall</text>
<circle cx="527.26" cy="60.41" r="4.4" fill="#d62728" stroke="#111" stroke-width="0.6"/>
<text class="index" x="533.26" y="56.41">1</text>
<circle cx="196.09" cy="60.41" r="4.4" fill="#d62728" stroke="#111" stroke-width="0.6"/>
<text class="index" x="202.09" y="56.41">2</text>
<circle cx="91.31" cy="60.41" r="4.4" fill="#d62728" stroke="#111" stroke-width="0.6"/>
<text class="index" x="97.31" y="56.41">3</text>
<circle cx="547.43" cy="69.76" r="4.4" fill="#d62728" stroke="#111" stroke-width="0.6"/>
<text class="index" x="553.43" y="65.76">4</text>
<circle cx="387.03" cy="72.49" r="4.4" fill="#d62728" stroke="#111" stroke-width="0.6"/>
<text class="index" x="393.03" y="68.49">5</text>
<circle cx="559.69" cy="75.23" r="4.4" fill="#d62728" stroke="#111" stroke-width="0.6"/>
<text class="index" x="565.69" y="71.23">6</text>
<circle cx="544.93" cy="76.38" r="4.4" fill="#d62728" stroke="#111" stroke-width="0.6"/>
<text class="index" x="550.93" y="72.38">7</text>
<circle cx="570.75" cy="81.27" r="4.4" fill="#d62728" stroke="#111" stroke-width="0.6"/>
<text class="index" x="576.75" y="77.27">8</text>
<circle cx="542.96" cy="88.31" r="4.4" fill="#d62728" stroke="#111" stroke-width="0.6"/>
<text class="index" x="548.96" y="84.31">9</text>
<circle cx="580.79" cy="91.77" r="4.4" fill="#d62728" stroke="#111" stroke-width="0.6"/>
<text class="index" x="586.79" y="87.77">10</text>
<circle cx="414.24" cy="92.20" r="4.4" fill="#d62728" stroke="#111" stroke-width="0.6"/>
<text class="index" x="420.24" y="88.20">11</text>
<circle cx="558.02" cy="101.69" r="4.4" fill="#d62728" stroke="#111" stroke-width="0.6"/>
<text class="index" x="564.02" y="97.69">12</text>
<circle cx="595.01" cy="105.29" r="4.4" fill="#d62728" stroke="#111" stroke-width="0.6"/>
<text class="index" x="601.01" y="101.29">13</text>
<circle cx="556.38" cy="109.03" r="4.4" fill="#d62728" stroke="#111" stroke-width="0.6"/>
<text class="index" x="562.38" y="105.03">14</text>
<circle cx="469.95" cy="111.47" r="4.4" fill="#d62728" stroke="#111" stroke-width="0.6"/>
<text class="index" x="475.95" y="107.47">15</text>
<circle cx="605.04" cy="119.38" r="4.4" fill="#d62728" stroke="#111" stroke-width="0.6"/>
<text class="index" x="611.04" y="115.38">16</text>
<circle cx="620.25" cy="141.68" r="4.4" fill="#d62728" stroke="#111" stroke-width="0.6"/>
<text class="index" x="626.25" y="137.68">17</text>
<circle cx="576.38" cy="145.42" r="4.4" fill="#d62728" stroke="#111" stroke-width="0.6"/>
<text class="index" x="582.38" y="141.42">18</text>
<circle cx="487.38" cy="145.70" r="4.4" fill="#d62728" stroke="#111" stroke-width="0.6"/>
<text class="index" x="493.38" y="141.70">19</text>
<circle cx="571.48" cy="150.74" r="4.4" fill="#d62728" stroke="#111" stroke-width="0.6"/>
<text class="index" x="577.48" y="146.74">20</text>
<circle cx="639.06" cy="175.62" r="4.4" fill="#d62728" stroke="#111" stroke-width="0.6"/>
<text class="index" x="645.06" y="171.62">21</text>
<circle cx="589.60" cy="176.48" r="4.4" fill="#d62728" stroke="#111" stroke-width="0.6"/>
<text class="index" x="595.60" y="172.48">22</text>
<circle cx="501.34" cy="176.63" r="4.4" fill="#d62728" stroke="#111" stroke-width="0.6"/>
<text class="index" x="507.34" y="172.63">23</text>
<circle cx="583.95" cy="184.83" r="4.4" fill="#d62728" stroke="#111" stroke-width="0.6"/>
<text class="index" x="589.95" y="180.83">24</text>
<circle cx="172.41" cy="195.61" r="4.4" fill="#d62728" stroke="#111" stroke-width="0.6"/>
<text class="index" x="178.41" y="191.61">25</text>
<circle cx="649.12" cy="204.10" r="4.4" fill="#d62728" stroke="#111" stroke-width="0.6"/>
<text class="index" x="655.12" y="200.10">26</text>
<circle cx="606.55" cy="217.19" r="4.4" fill="#d62728" stroke="#111" stroke-width="0.6"/>
<text class="index" x="612.55" y="213.19">27</text>
<circle cx="517.42" cy="217.48" r="4.4" fill="#d62728" stroke="#111" stroke-width="0.6"/>
<text class="index" x="523.42" y="213.48">28</text>
<circle cx="174.94" cy="225.67" r="4.4" fill="#d62728" stroke="#111" stroke-width="0.6"/>
<text class="index" x="180.94" y="221.67">29</text>
<circle cx="593.80" cy="228.98" r="4.4" fill="#d62728" stroke="#111" stroke-width="0.6"/>
<text class="index" x="599.80" y="224.98">30</text>
<circle cx="326.25" cy="239.77" r="4.4" fill="#d62728" stroke="#111" stroke-width="0.6"/>
<text class="index" x="332.25" y="235.77">31</text>
<circle cx="176.53" cy="240.78" r="4.4" fill="#d62728" stroke="#111" stroke-width="0.6"/>
<text class="index" x="182.53" y="236.78">32</text>
<circle cx="618.83" cy="241.21" r="4.4" fill="#d62728" stroke="#111" stroke-width="0.6"/>
<text class="index" x="624.83" y="237.21">33</text>
<circle cx="527.13" cy="241.21" r="4.4" fill="#d62728" stroke="#111" stroke-width="0.6"/>
<text class="index" x="533.13" y="237.21">34</text>
<circle cx="177.27" cy="259.62" r="4.4" fill="#d62728" stroke="#111" stroke-width="0.6"/>
<text class="index" x="183.27" y="255.62">35</text>
<circle cx="601.05" cy="260.77" r="4.4" fill="#d62728" stroke="#111" stroke-width="0.6"/>
<text class="index" x="607.05" y="256.77">36</text>
<circle cx="630.23" cy="278.75" r="4.4" fill="#d62728" stroke="#111" stroke-width="0.6"/>
<text class="index" x="636.23" y="274.75">37</text>
<circle cx="537.42" cy="278.75" r="4.4" fill="#d62728" stroke="#111" stroke-width="0.6"/>
<text class="index" x="543.42" y="274.75">38</text>
<circle cx="179.05" cy="282.78" r="4.4" fill="#d62728" stroke="#111" stroke-width="0.6"/>
<text class="index" x="185.05" y="278.78">39</text>
<circle cx="608.91" cy="298.02" r="4.4" fill="#d62728" stroke="#111" stroke-width="0.6"/>
<text class="index" x="614.91" y="294.02">40</text>
<circle cx="634.45" cy="299.17" r="4.4" fill="#d62728" stroke="#111" stroke-width="0.6"/>
<text class="index" x="640.45" y="295.17">41</text>
<circle cx="548.58" cy="299.17" r="4.4" fill="#d62728" stroke="#111" stroke-width="0.6"/>
<text class="index" x="554.58" y="295.17">42</text>
<circle cx="180.15" cy="311.11" r="4.4" fill="#d62728" stroke="#111" stroke-width="0.6"/>
<text class="index" x="186.15" y="307.11">43</text>
<circle cx="181.15" cy="330.96" r="4.4" fill="#d62728" stroke="#111" stroke-width="0.6"/>
<text class="index" x="187.15" y="326.96">44</text>
<circle cx="640.28" cy="331.39" r="4.4" fill="#d62728" stroke="#111" stroke-width="0.6"/>
<text class="index" x="646.28" y="327.39">45</text>
<circle cx="553.95" cy="331.39" r="4.4" fill="#d62728" stroke="#111" stroke-width="0.6"/>
<text class="index" x="559.95" y="327.39">46</text>
<circle cx="626.57" cy="347.50" r="4.4" fill="#d62728" stroke="#111" stroke-width="0.6"/>
<text class="index" x="632.57" y="343.50">47</text>
<circle cx="181.66" cy="351.82" r="4.4" fill="#d62728" stroke="#111" stroke-width="0.6"/>
<text class="index" x="187.66" y="347.82">48</text>
<circle cx="182.31" cy="363.47" r="4.4" fill="#d62728" stroke="#111" stroke-width="0.6"/>
<text class="index" x="188.31" y="359.47">49</text>
<circle cx="501.18" cy="365.34" r="4.4" fill="#d62728" stroke="#111" stroke-width="0.6"/>
<text class="index" x="507.18" y="361.34">50</text>
<circle cx="449.81" cy="365.34" r="4.4" fill="#d62728" stroke="#111" stroke-width="0.6"/>
<text class="index" x="455.81" y="361.34">51</text>
<circle cx="180.09" cy="377.56" r="4.4" fill="#d62728" stroke="#111" stroke-width="0.6"/>
<text class="index" x="186.09" y="373.56">52</text>
<circle cx="429.26" cy="381.59" r="4.4" fill="#d62728" stroke="#111" stroke-width="0.6"/>
<text class="index" x="435.26" y="377.59">53</text>
<text class="label" x="676" y="50">Labels</text>
<text class="label" x="676" y="64">1. ivf_flat__p10</text>
<text class="label" x="676" y="78">2. exact</text>
<text class="label" x="676" y="92">3. covertree_v2_2</text>
<text class="label" x="676" y="106">4. hnsw__p10</text>
<text class="label" x="676" y="120">5. pq</text>
<text class="label" x="676" y="134">6. hnsw__p09</text>
<text class="label" x="676" y="148">7. ivf_flat__p09</text>
<text class="label" x="676" y="162">8. hnsw__p08</text>
<text class="label" x="676" y="176">9. ivf_sq8__p10</text>
<text class="label" x="676" y="190">10. hnsw__p07</text>
<text class="label" x="676" y="204">11. ivf_pq__p10</text>
<text class="label" x="676" y="218">12. ivf_flat__p08</text>
<text class="label" x="676" y="232">13. hnsw__p06</text>
<text class="label" x="676" y="246">14. ivf_sq8__p09</text>
<text class="label" x="676" y="260">15. ivf_pq__p09</text>
<text class="label" x="676" y="274">16. hnsw__p05</text>
<text class="label" x="676" y="288">17. hnsw__p04</text>
<text class="label" x="676" y="302">18. ivf_sq8__p08</text>
<text class="label" x="676" y="316">19. ivf_pq__p08</text>
<text class="label" x="676" y="330">20. ivf_flat__p07</text>
<text class="label" x="676" y="344">21. hnsw__p03</text>
<text class="label" x="676" y="358">22. ivf_sq8__p07</text>
<text class="label" x="676" y="372">23. ivf_pq__p07</text>
<text class="label" x="676" y="386">24. ivf_flat__p06</text>
<text class="label" x="676" y="400">25. lsh__p10</text>
<text class="label" x="676" y="414">26. hnsw__p02</text>
<text class="label" x="676" y="428">27. ivf_sq8__p06</text>
<text class="label" x="676" y="442">28. ivf_pq__p06</text>
<text class="label" x="676" y="456">29. lsh__p09</text>
<text class="label" x="676" y="470">30. ivf_flat__p05</text>
<text class="label" x="676" y="484">31. hnsw__p01</text>
<text class="label" x="676" y="498">32. lsh__p08</text>
<text class="label" x="676" y="512">33. ivf_sq8__p05</text>
<text class="label" x="676" y="526">34. ivf_pq__p05</text>
<text class="label" x="676" y="540">35. lsh__p07</text>
<text class="label" x="676" y="554">36. ivf_flat__p04</text>
<text class="label" x="676" y="568">37. ivf_sq8__p04</text>
<text class="label" x="676" y="582">38. ivf_pq__p04</text>
<text class="label" x="676" y="596">39. lsh__p06</text>
<text class="label" x="676" y="610">40. ivf_flat__p03</text>
<text class="label" x="676" y="624">41. ivf_sq8__p03</text>
<text class="label" x="676" y="638">42. ivf_pq__p03</text>
<text class="label" x="676" y="652">43. lsh__p05</text>
<text class="label" x="676" y="666">44. lsh__p04</text>
<text class="label" x="676" y="680">45. ivf_sq8__p02</text>
<text class="label" x="676" y="694">46. ivf_pq__p02</text>
<text class="label" x="676" y="708">47. ivf_flat__p02</text>
<text class="label" x="676" y="722">48. lsh__p03</text>
<text class="label" x="676" y="736">49. lsh__p02</text>
<text class="label" x="676" y="750">50. ivf_sq8__p01</text>
<text class="label" x="676" y="764">51. ivf_pq__p01</text>
<text class="label" x="676" y="778">52. lsh__p01</text>
<text class="label" x="676" y="792">53. ivf_flat__p01</text>
</svg>